<?xml version="1.0" encoding="UTF-8" standalone="no"?><svg xmlns="http://www.w3.org/2000/svg" xmlns:xlink="http://www.w3.org/1999/xlink" fill="#ba0c2f" height="458.5" preserveAspectRatio="xMidYMid meet" version="1" viewBox="5.7 25.6 498.8 458.5" width="498.8" zoomAndPan="magnify"><g id="change1_1"><path clip-rule="evenodd" d="M182.853,187.932c-18.851,0-34.187,15.336-34.187,34.187c0,9.11,3.589,17.392,9.417,23.526 c-18.723,8.492-32.361,26.358-34.679,48.029c-0.242,2.258,0.486,4.511,2.004,6.199s3.681,2.652,5.95,2.652h102.988 c2.27,0,4.433-0.964,5.95-2.652s2.246-3.941,2.004-6.199c-0.462-4.323-1.39-8.488-2.703-12.465H272.4 c-1.314,3.977-2.241,8.142-2.704,12.465c-0.242,2.258,0.486,4.511,2.004,6.199s3.681,2.652,5.95,2.652h102.988 c2.27,0,4.433-0.964,5.95-2.652s2.246-3.941,2.004-6.199c-2.318-21.67-15.956-39.536-34.679-48.029 c5.829-6.134,9.417-14.416,9.417-23.526c0-18.851-15.336-34.187-34.187-34.187s-34.187,15.336-34.187,34.187 c0,5.005,1.09,9.758,3.031,14.046c-5.006-4.954-10.828-8.959-17.209-11.85c5.821-6.133,9.404-14.409,9.404-23.512 c0-18.851-15.336-34.187-34.187-34.187s-34.187,15.336-34.187,34.187c0,9.103,3.583,17.38,9.405,23.512 c-6.38,2.892-12.203,6.896-17.208,11.85c1.941-4.288,3.031-9.041,3.031-14.045C217.039,203.268,201.703,187.932,182.853,187.932z M164.666,222.119c0-10.028,8.158-18.187,18.187-18.187s18.187,8.158,18.187,18.187s-8.158,18.187-18.187,18.187 S164.666,232.147,164.666,222.119z M141.19,286.525c5.726-17.726,22.311-30.22,41.662-30.22s35.937,12.494,41.662,30.22H141.19z M370.807,286.525h-83.324c5.726-17.726,22.311-30.22,41.662-30.22S365.081,268.799,370.807,286.525z M329.145,203.932 c10.028,0,18.187,8.158,18.187,18.187s-8.158,18.187-18.187,18.187s-18.187-8.158-18.187-18.187S319.116,203.932,329.145,203.932z M237.812,200.802c0-10.028,8.158-18.187,18.187-18.187s18.187,8.158,18.187,18.187s-8.158,18.187-18.187,18.187 S237.812,210.831,237.812,200.802z M255.998,234.989c14.424,0,27.568,6.93,35.706,18.44c-4.232,3.393-7.995,7.352-11.171,11.779 h-49.068c-3.176-4.427-6.939-8.387-11.172-11.78C228.431,241.919,241.575,234.989,255.998,234.989z M501.919,115.984l-45.233-79.925 c-4.364-7.715-14.193-10.435-21.906-6.072l-15.387,8.708c-7.712,4.366-10.436,14.193-6.07,21.906l3.133,5.536l-5.484,3.167 L341.99,50.82c-12.557-3.366-24.944-1.609-35.815,5.081l-99.516,61.277c-10.638,6.55-13.948,22.35-7.083,33.812 c3.242,5.416,16.436,21.564,50.019,2.008l54.836-31.94c0.416-0.242,0.834-0.473,1.254-0.691 c-2.996,11.962,4.107,24.337,16.312,28.294c0.344,0.11,0.693,0.198,1.048,0.263c12.15,2.19,24.241,6.088,34.87,9.828 c46.063,33.315,59.332,95.353,30.792,144.784c-9.995,17.313-24.507,31.515-41.774,41.186c1.464-3.734-0.071-8.053-3.699-9.978 c-3.904-2.07-8.746-0.585-10.816,3.318l-10.252,19.327c-1.152,2.173-1.241,4.755-0.241,7.002c1,2.246,2.978,3.908,5.363,4.507 l21.222,5.321c0.652,0.164,1.308,0.242,1.951,0.242c3.582,0,6.843-2.424,7.754-6.057c0.951-3.793-0.982-7.629-4.411-9.206 c20.181-11.078,37.139-27.532,48.76-47.663c15.815-27.393,20.793-59.506,14.017-90.425c-4.339-19.793-13.254-38.002-25.863-53.32 c10.219-0.245,19.455-4.616,27.494-9.271l38.058-22.035l2.288,4.043c0,0,0,0,0,0.001c2.954,5.218,8.408,8.152,14.017,8.152 c2.68,0,5.396-0.67,7.89-2.082l15.387-8.708c3.728-2.11,6.414-5.555,7.562-9.697C504.56,124.047,504.029,119.712,501.919,115.984z M410.193,144.671c-11.65,6.744-19.438,8.51-26.879,6.097c-3.283-1.065-7.102-2.445-11.522-4.044 c-12.796-4.626-28.684-10.37-45.291-13.435c-4.026-1.514-6.279-5.373-5.267-9.15c0.447-1.667,1.636-6.055,9.175-5.229 c7.903,1.633,15.476,3.79,23.483,6.077c3.862,1.104,7.855,2.243,11.972,3.347c0.693,0.186,1.39,0.274,2.075,0.274 c3.532,0,6.765-2.357,7.723-5.932c1.144-4.268-1.39-8.654-5.657-9.798c-3.989-1.068-7.919-2.191-11.718-3.276 c-8.432-2.408-16.396-4.683-25.028-6.446c-0.049-0.01-0.259-0.049-0.316-0.059l-6.828-1.11c-10.942-1.748-20.669-0.033-29.735,5.244 l-54.837,31.94c-13.899,8.096-24.72,9.473-28.239,3.598c-2.455-4.099-1.098-10.216,1.745-11.966l99.515-61.277 c7.13-4.389,14.96-5.484,23.286-3.251l72.182,19.341c2.047,0.549,4.233,0.263,6.07-0.8l8.235-4.755l24.051,42.497L410.193,144.671z M487.967,123.965l-15.483,8.686c0,0-0.001-0.001-0.004-0.006l-38.226-67.543c0-0.001-0.001-0.002-0.001-0.003 s-0.001-0.001-0.001-0.002l-7.007-12.382l0.031-0.097l15.391-8.71l0.096,0.03l45.237,79.931L487.967,123.965z M469.66,119.964 c-0.438-3.002,1.639-5.791,4.641-6.23c3.002-0.439,5.791,1.639,6.23,4.641s-1.639,5.791-4.641,6.23 C472.889,125.043,470.099,122.965,469.66,119.964z M262.402,359l-54.836,31.939c-0.416,0.242-0.834,0.473-1.254,0.691 c2.995-11.961-4.109-24.336-16.312-28.293c-0.343-0.11-0.693-0.198-1.048-0.263c-12.149-2.191-24.241-6.089-34.87-9.829 c-46.062-33.314-59.331-95.353-30.792-144.783c9.996-17.313,24.508-31.515,41.775-41.185c-1.464,3.734,0.071,8.053,3.699,9.978 c1.195,0.634,2.478,0.935,3.742,0.935c2.866,0,5.638-1.545,7.074-4.253l10.252-19.328c1.152-2.173,1.241-4.755,0.241-7.002 s-2.978-3.909-5.363-4.507l-21.221-5.32c-4.293-1.08-8.631,1.529-9.705,5.814c-0.951,3.793,0.982,7.629,4.411,9.206 c-20.18,11.078-37.139,27.532-48.76,47.662c-15.815,27.394-20.794,59.507-14.017,90.426c4.337,19.788,13.249,37.992,25.854,53.308 c-10.217,0.246-19.448,4.628-27.485,9.281l-38.058,22.035l-2.288-4.042c-2.11-3.729-5.555-6.415-9.698-7.563 c-4.142-1.149-8.479-0.619-12.207,1.491l-15.386,8.708c-7.714,4.365-10.438,14.192-6.071,21.906l45.233,79.926 c2.11,3.728,5.555,6.413,9.697,7.562c1.433,0.396,2.888,0.594,4.333,0.593c2.736,0,5.436-0.704,7.875-2.085l15.386-8.707 c3.729-2.11,6.415-5.555,7.563-9.698s0.619-8.479-1.491-12.208l-3.134-5.537l5.484-3.166l68.981,18.484 c4.152,1.112,8.284,1.665,12.35,1.665c8.233,0,16.189-2.269,23.466-6.747l99.515-61.277c10.639-6.55,13.948-22.35,7.083-33.812 C309.177,355.589,295.984,339.441,262.402,359z M84.723,459.377l-15.392,8.711l-0.096-0.031l-45.236-79.931l0.031-0.096 l15.481-8.687c0,0,0.002,0.002,0.005,0.008l45.236,79.929L84.723,459.377z M296.948,381.193l-99.514,61.277 c-7.129,4.387-14.964,5.481-23.287,3.252l-72.182-19.342c-2.049-0.55-4.233-0.263-6.07,0.8l-8.235,4.754l-24.052-42.497 l38.194-22.113c11.65-6.744,19.437-8.512,26.879-6.097c3.283,1.065,7.103,2.446,11.524,4.045 c12.796,4.626,28.682,10.369,45.288,13.435c4.028,1.514,6.28,5.373,5.269,9.149c-0.447,1.667-1.621,6.056-9.172,5.23 c-7.902-1.633-15.473-3.789-23.479-6.076c-3.864-1.104-7.86-2.245-11.98-3.349c-4.265-1.14-8.653,1.39-9.798,5.657 c-1.144,4.268,1.39,8.654,5.657,9.798c3.993,1.069,7.925,2.192,11.728,3.278c8.428,2.407,16.389,4.681,25.019,6.445 c0.053,0.011,0.265,0.05,0.319,0.059l6.826,1.109c10.945,1.751,20.669,0.035,29.735-5.244l54.837-31.939 c13.897-8.095,24.72-9.476,28.239-3.599C301.148,373.326,299.792,379.443,296.948,381.193z M42.336,392.033 c0.439,3.002-1.639,5.791-4.641,6.23c-3.002,0.439-5.791-1.639-6.23-4.64c-0.439-3.002,1.639-5.791,4.641-6.23 C39.108,386.953,41.897,389.031,42.336,392.033z" fill-rule="evenodd"/></g></svg>