<?xml version="1.0" encoding="UTF-8" standalone="no"?><svg xmlns="http://www.w3.org/2000/svg" xmlns:xlink="http://www.w3.org/1999/xlink" fill="#000000" height="1080.3" preserveAspectRatio="xMidYMid meet" version="1" viewBox="-0.4 -0.2 1077.7 1080.3" width="1077.7" zoomAndPan="magnify"><g id="change1_1"><path d="M562.73212,547.27197c-3.10675,11.24292-14.43555,20.1842-25.62994,20.22833 c-11.80194,0.04651-23.08026-9.34143-26.29962-21.89178c-3.11731-12.15204,3.45367-22.99872,20.24207-32.27399 c-7.22607-3.18445-13.46466-6.81567-16.88098-13.73071c-3.36902-6.81946-4.14612-13.67865-1.47992-20.90833 c3.87762-10.51453,14.68201-17.82666,25.58807-17.17206c12.36865,0.74231,22.31696,9.82196,24.4408,22.3067 c2.05072,12.05457-4.76685,22.56403-19.52295,29.34784C560.43439,523.48145,566.36957,534.10809,562.73212,547.27197z M595.88037,513.27441c16.09375-6.07446,23.01697-16.06042,20.78644-29.98212c-1.92126-11.99176-11.91522-20.76971-24.1181-21.18341 c-12.11945-0.41077-22.93207,7.87292-25.50836,19.54254c-3.14264,14.23474,3.68134,24.86743,20.42676,31.82782 c-17.9574,9.41827-24.20441,18.85736-21.17401,31.99396c2.84961,12.35327,13.61182,21.30505,25.52716,21.23315 c11.27356-0.06812,21.68127-8.28345,24.85297-19.61768C620.58429,533.11218,615.01788,524.05969,595.88037,513.27441z M484.45984,515.34814c-14.14813-0.10394-25.12958,10.69897-25.2301,24.82007c-0.10077,14.16266,10.6933,25.15234,24.80066,25.25 c14.08002,0.09747,25.2149-10.81097,25.33502-24.82001C509.48535,526.61151,498.47729,515.45117,484.45984,515.34814z M537.6543,567.99969c-13.87646-0.34143-25.29803,10.4884-25.70721,24.37524c-0.4267,14.48212,10.53784,25.90417,24.93933,25.98016 c14.04755,0.07422,25.06195-10.72198,25.24225-24.74225C562.30878,579.60168,551.54932,568.34155,537.6543,567.99969z M591.80225,568.46368c-14.14868-0.03796-25.00275,10.96033-24.82971,25.15961c0.1676,13.74683,10.88867,24.34717,24.66235,24.38458 c14.14862,0.03851,25.00293-10.96045,24.82959-25.16028C616.29669,579.10138,605.57501,568.50067,591.80225,568.46368z M482.84766,512.1908c13.76355,0.63055,25.17151-9.37036,26.0061-22.79883c0.87903-14.14362-9.40576-25.88892-23.22449-26.52203 c-14.14178-0.64801-25.6261,9.81897-26.04462,23.73755C459.17157,500.34332,469.38367,511.57391,482.84766,512.1908z M484.15314,568.80145c-13.40662,0.04968-24.51245,11.35272-24.32318,24.75525 c0.18445,13.05634,10.98145,23.89368,24.02405,24.11359c13.3869,0.22559,24.70496-10.86023,24.79346-24.28467 C508.73578,579.97223,497.55646,568.75183,484.15314,568.80145z M539.14594,457.06604 c12.96539-0.14569,24.0188-11.30896,24.02588-24.26483c0.00708-12.948-11.0423-24.12775-24.00366-24.28705 c-12.91016-0.15863-24.18634,10.79333-24.49738,23.79303C514.35394,445.55341,525.88202,457.21515,539.14594,457.06604z M645.92572,516.04755c-12.85681-0.84296-24.55182,9.3772-25.69373,22.45349c-1.15131,13.18408,9.45239,25.33795,22.87378,26.21796 c12.85657,0.8429,24.55273-9.3783,25.6936-22.45361C669.94989,529.07996,659.3476,516.92749,645.92572,516.04755z M591.51331,456.82074c12.87091,0.14075,24.06921-10.87933,24.21051-23.8252c0.14056-12.8844-10.86798-24.09454-23.80011-24.23596 c-12.87177-0.14081-24.06909,10.87823-24.21051,23.82507C567.57239,445.46881,578.58124,456.6792,591.51331,456.82074z M644.30811,511.6463c12.87262,0.14197,24.15564-10.95996,24.29803-23.90808c0.14178-12.88617-10.94843-24.18097-23.88287-24.32361 c-12.87164-0.14185-24.15552,10.96088-24.29816,23.90802C620.2832,500.20856,631.37378,511.50366,644.30811,511.6463z M644.96539,569.65747c-12.80536-0.26044-23.4527,9.79974-23.98297,22.6604c-0.54291,13.16449,9.88245,24.22809,23.08344,24.49658 c12.80536,0.26056,23.45282-9.79956,23.98328-22.66028C668.5921,580.98883,658.16736,569.92596,644.96539,569.65747z M431.64716,517.16974c-13.15765-0.10205-23.29388,9.86646-23.39471,23.00745c-0.10107,13.17261,9.85583,23.31842,22.98315,23.41931 c13.15875,0.10107,23.29395-9.86633,23.39459-23.00745C454.73108,527.41675,444.77496,517.27161,431.64716,517.16974z M537.83154,624.66241c-13.13489-0.40509-23.68311,9.45642-24.08514,22.51715c-0.40472,13.14893,9.44586,23.70746,22.49347,24.11029 c13.1347,0.40558,23.68329-9.45605,24.08514-22.51691C560.72974,635.62402,550.87866,625.06482,537.83154,624.66241z M483.81555,456.1037c13.1369,0.21655,23.49634-9.78406,23.71204-22.89038c0.21637-13.15033-9.77411-23.521-22.86658-23.73682 c-13.13647-0.21655-23.49628,9.78467-23.71167,22.89093C460.73328,445.51562,470.72534,455.88806,483.81555,456.1037z M484.54401,625.22748c-12.63287-0.1441-22.77795,9.63873-23.03033,22.20813c-0.26154,13.02557,9.90356,23.3689,22.88782,23.28918 c12.59711-0.07721,22.52838-10.05933,22.56171-22.67725C506.99652,635.42426,497.12,625.37128,484.54401,625.22748z M431.37469,570.48737c-12.60498,0.03113-22.57892,9.97113-22.65796,22.58063c-0.07928,12.63892,9.74847,22.72833,22.32245,22.91656 c13.01111,0.19482,23.27283-10.03284,23.12671-23.04987C454.02466,580.34521,443.98413,570.45618,431.37469,570.48737z M591.22491,624.93152c-12.74652,0.21545-22.43304,10.03375-22.52698,22.83344 c-0.09692,13.21777,9.86115,23.26721,23.04462,23.25604c13.17767-0.01129,23.11499-10.08142,22.99652-23.30408 C614.62128,634.56989,604.44409,624.70813,591.22491,624.93152z M431.44025,510.50592 c13.12128,0.00043,23.05731-10.04657,22.95239-23.20892c-0.10443-13.10748-10.2406-22.95074-23.41876-22.742 c-12.69739,0.20117-22.38159,9.99554-22.48401,22.73993C408.38409,500.4577,418.31909,510.50543,431.44025,510.50592z M644.84387,455.5387c12.57623-0.15411,22.44128-10.21564,22.39648-22.84253c-0.04474-12.61737-9.98474-22.58844-22.58398-22.65466 c-12.62256-0.06628-22.69006,9.78436-22.86548,22.37329C621.6095,445.43915,631.83685,455.69806,644.84387,455.5387z M697.02753,517.88593c-11.96808,0.17004-22.07819,10.33698-22.18817,22.31317 c-0.11316,12.31708,10.46204,22.85638,22.75903,22.68182c11.96558-0.16986,22.07806-10.33966,22.18817-22.31348 C719.89984,528.25006,709.32489,517.71124,697.02753,517.88593z M697.98645,509.86902 c11.93701-0.44122,21.92535-10.95416,21.64142-22.77832c-0.28589-11.90558-10.70062-22.0332-22.52002-21.89893 c-11.91302,0.13531-22.08978,10.40411-22.10968,22.30963C674.97766,499.74487,685.84381,510.31769,697.98645,509.86902z M644.5849,625.56873c-12.297-0.04626-22.86584,10.80072-22.45312,23.04407c0.40466,12.0061,10.88812,22.02313,22.78497,21.771 c11.96173-0.25348,22.08942-10.65314,21.98322-22.57343C666.7934,635.83807,656.53516,625.61371,644.5849,625.56873z M539.11322,402.34503c11.96527-0.12323,22.16388-10.40112,22.1922-22.36456c0.02826-11.95294-10.13446-22.27429-22.10583-22.45093 c-11.9054-0.17554-22.3363,9.90179-22.66229,21.8941C516.20404,391.68335,526.82965,402.4715,539.11322,402.34503z M697.00916,571.16168c-11.63135,0.19617-21.4873,10.01898-21.74707,21.67371c-0.26575,11.92523,9.89795,22.36285,21.8855,22.47485 c11.96765,0.112,22.26453-10.15112,22.21698-22.14374C719.31702,581.18109,708.93359,570.96051,697.00916,571.16168z M430.70618,455.09424c11.82159,0.48096,22.52783-9.552,23.01587-21.5683c0.48071-11.83405-9.54175-22.55151-21.54572-23.03992 c-11.82184-0.48096-22.52783,9.5517-23.01575,21.5683C408.68018,443.88855,418.70239,454.60583,430.70618,455.09424z M591.74261,402.16028c11.92706-0.01685,22.19226-10.315,22.17548-22.24695c-0.01685-11.93976-10.30414-22.21558-22.22363-22.19873 c-11.92712,0.01678-22.19263,10.31537-22.17566,22.24689C569.53589,391.90125,579.82324,402.17712,591.74261,402.16028z M484.64661,401.77234c11.79486-0.25043,21.36597-9.98724,21.40375-21.77441c0.03894-12.14014-10.1214-22.15216-22.22003-21.89539 c-11.79449,0.25037-21.36676,9.9881-21.40417,21.77429C462.38751,392.02234,472.54297,402.02917,484.64661,401.77234z M431.45831,626.37555c-11.95526-0.00989-21.45386,9.38074-21.59454,21.34906c-0.14056,11.96362,9.14581,21.58496,21.09161,21.85211 c12.30493,0.27533,22.18988-9.49939,22.06378-21.81799C452.89667,635.78705,443.41699,626.3855,431.45831,626.37555z M537.21643,679.42291c-12.08099-0.0929-21.47174,9.15009-21.56439,21.22498c-0.0929,12.10016,9.13403,21.49432,21.20276,21.58722 c12.0874,0.09296,21.4718-9.14368,21.56451-21.22504C558.51215,688.90985,549.28522,679.51562,537.21643,679.42291z M379.06049,519.05872c-12.17316-0.20404-21.62988,9.0022-21.71838,21.14313c-0.08606,11.80566,8.72095,21.07941,20.41504,21.49731 c12.20154,0.43591,21.87323-8.57074,22.18903-20.66339C400.26453,528.84241,391.15942,519.26147,379.06049,519.05872z M591.45557,679.6167c-11.71887,0.12012-20.72864,9.06305-20.92688,20.77161c-0.20599,12.17053,8.88879,21.5553,20.98407,21.65289 c12.15594,0.09802,21.40955-9.08856,21.39563-21.24091C612.89453,688.65936,603.61084,679.49225,591.45557,679.6167z M379.07843,572.28204c-11.73755-0.19745-21.06537,8.65808-21.36633,20.28424c-0.3045,11.76678,8.44208,21.20764,20.02826,21.61755 c12.1521,0.42993,21.74109-8.6814,21.83563-20.74799C399.66803,581.69641,390.73566,572.47809,379.07843,572.28204z M378.26215,508.67273c12.23669,0.17621,21.54395-9.01385,21.50189-21.2312c-0.04059-11.81464-8.97455-20.88464-20.73792-21.05371 c-12.23645-0.17596-21.54395,9.01447-21.50208,21.23145C357.56458,499.43616,366.49579,508.50317,378.26215,508.67273z M697.05933,627.14862c-11.58795,0.12665-20.67883,9.45172-20.55212,21.08167c0.1264,11.60004,9.44189,20.70056,21.05951,20.57373 c11.58783-0.12665,20.67896-9.45197,20.55225-21.08191C717.99255,636.12207,708.67706,627.02167,697.05933,627.14862z M484.57092,679.87476c-11.72803-0.15094-21.00842,8.74646-21.2644,20.3866c-0.26666,12.13068,8.99023,21.5863,21.06921,21.52155 c11.69067-0.06268,20.75049-9.14954,20.79468-20.85657C505.21466,689.19202,496.24457,680.02496,484.57092,679.87476z M697.27673,453.9566c11.83661,0.01654,20.95325-8.87567,21.18011-20.65857c0.23602-12.26459-8.91077-21.65674-21.10785-21.67389 c-11.83691-0.01666-20.95331,8.87518-21.17993,20.65826C675.93317,444.54633,685.08087,453.93964,697.27673,453.9566z M644.39972,401.07996c11.8269,0.05402,20.97632-8.80194,21.23621-20.55518c0.27094-12.2522-8.83722-21.67487-21.00403-21.72961 c-11.82806-0.05316-20.97656,8.80164-21.23633,20.55487C623.12476,391.60248,632.23199,401.02435,644.39972,401.07996z M430.95367,400.7193c11.55884,0.25885,21.11322-8.97235,21.24768-20.52905c0.13458-11.57025-9.18964-21.02582-20.74255-21.03473 c-11.18439-0.00867-20.40729,8.89508-20.77777,20.05859C410.29718,390.7829,419.42053,400.46106,430.95367,400.7193z M752.20044,519.87793c-10.94586-0.13049-20.5575,9.30096-20.68835,20.30042c-0.13043,10.95728,9.2912,20.57922,20.27905,20.71033 c10.96259,0.13086,20.55731-9.28406,20.68842-20.30066C772.60992,529.63092,763.18817,520.00879,752.20044,519.87793z M644.57812,680.1236c-11.146-0.03467-20.45148,9.01312-20.74591,20.17163c-0.30396,11.51501,9.10248,21.20319,20.62115,21.23901 c11.14362,0.03473,20.45197-9.01581,20.74628-20.17151C665.50323,689.8479,656.09668,680.15942,644.57812,680.1236z M378.66779,453.42505c11.00916-0.01367,20.33008-9.15387,20.58917-20.18976c0.26685-11.36841-9.25415-21.09387-20.6366-21.07971 c-11.00958,0.01373-20.33002,9.15332-20.58917,20.18951C357.76428,443.71588,367.28302,453.43915,378.66779,453.42505z M538.71674,347.58997c10.94586,0.13037,20.5575-9.30103,20.68829-20.30054c0.13037-10.95728-9.29126-20.57928-20.27905-20.71027 c-10.96344-0.13062-20.55743,9.28345-20.68842,20.30072C518.30719,337.83728,527.72882,347.45898,538.71674,347.58997z M378.61835,627.64935c-10.56445,0.01666-19.8432,9.00616-20.27948,19.64691c-0.44452,10.84253,8.88721,20.71259,19.8609,21.00659 c10.86066,0.29102,20.60999-9.16125,20.74945-20.11713C399.08807,637.27881,389.53784,627.63202,378.61835,627.64935z M751.68219,507.90381c10.89648,0.2041,20.61249-9.33777,20.66565-20.2951c0.05127-10.56049-8.93146-19.94708-19.5675-20.44714 c-10.83112-0.50928-20.77319,8.81305-21.13647,19.81915C731.28485,497.85248,740.71454,507.69843,751.68219,507.90381z M431.21332,680.4834c-10.9469,0.15149-20.40039,9.93982-20.09705,20.8092c0.29626,10.61761,9.49707,19.72644,20.08246,19.88196 c10.89087,0.15991,20.56189-9.40363,20.56683-20.33832C451.77051,689.90454,442.1048,680.3327,431.21332,680.4834z M591.45813,347.43024c10.88934,0.17108,20.56818-9.38336,20.58502-20.32031c0.01678-10.92737-9.64307-20.51025-20.53461-20.37085 c-10.58301,0.13544-19.797,9.22833-20.1142,19.84943C571.07001,337.45483,580.50739,347.25818,591.45813,347.43024z M751.56097,573.11255c-10.67944,0.27472-19.64539,9.4328-19.66742,20.08893c-0.02264,11.00647,9.5882,20.44006,20.53705,20.15839 c10.68231-0.2749,19.64545-9.4303,19.66754-20.08948C772.12079,582.26404,762.51031,572.83093,751.56097,573.11255z M696.4939,400.17053c10.78839,0.53192,20.6521-8.67834,21.04095-19.64697c0.38428-10.84253-8.92224-20.59802-19.87042-20.82922 c-10.88452-0.22986-20.4942,9.17096-20.57324,20.12555C677.0152,390.37164,685.85748,399.64606,696.4939,400.17053z M484.30286,347.07526c10.74518-0.03979,19.7995-9.05536,19.90479-19.81958c0.10498-10.73065-8.80493-19.91327-19.56317-20.16162 c-10.69379-0.24689-19.98236,8.57367-20.37555,19.34882C463.86542,337.50269,473.2002,347.11639,484.30286,347.07526z M324.49231,574.22681c-10.7403-0.25781-19.26465,7.81122-19.5202,18.47748c-0.25751,10.75189,7.80322,19.28558,18.45801,19.54089 c10.74066,0.25726,19.26465-7.81146,19.52026-18.4776C343.20795,583.01593,335.1474,574.4826,324.49231,574.22681z M751.8075,452.20428c11.13611,0.09326,19.60504-8.32312,19.58167-19.46021c-0.02252-10.75403-8.05725-19.0592-18.737-19.36768 c-11.12726-0.32141-19.8443,7.93542-20.04974,18.99109C732.39557,443.50476,740.72815,452.11157,751.8075,452.20428z M483.95813,734.61139c-10.78577,0.13306-18.90381,8.50226-18.77014,19.35107c0.133,10.797,8.49359,18.92334,19.33118,18.78949 c10.78558-0.13306,18.90356-8.50238,18.7702-19.35126C503.15662,742.60431,494.79565,734.47772,483.95813,734.61139z M644.37946,346.49841c11.13269,0.06952,19.57953-8.36963,19.52966-19.51172c-0.04968-11.11353-8.59344-19.47992-19.72552-19.31622 c-10.6991,0.15741-18.88605,8.33661-19.0611,19.04327C624.94031,337.8559,633.28479,346.42908,644.37946,346.49841z M431.38556,346.09406c10.72668,0.02625,19.01837-8.22571,19.04492-18.95355c0.02649-10.73792-8.21686-19.03845-18.93353-19.06494 c-10.72662-0.02649-19.01837,8.22559-19.04474,18.95349C412.42584,337.76672,420.66968,346.06799,431.38556,346.09406z M324.59198,521.07043c-11.21802-0.30139-19.84485,7.99139-19.92328,19.15173c-0.07629,10.86505,7.8963,19.18445,18.6618,19.47375 c11.21918,0.30139,19.8454-7.99054,19.92352-19.15173C343.33008,529.67944,335.35712,521.35968,324.59198,521.07043z M751.69,628.90582c-10.78302,0.14459-18.89008,8.52484-18.74463,19.37665c0.14453,10.79578,8.51471,18.9101,19.35583,18.76434 c10.78363-0.14502,18.89014-8.5246,18.745-19.37646C770.90192,636.87592,762.53058,628.7605,751.69,628.90582z M537.69208,734.26794 c-11.12732-0.32129-19.8443,7.93542-20.04968,18.99121c-0.20697,11.13745,8.12579,19.7442,19.20514,19.83667 c11.13654,0.09302,19.6048-8.32288,19.58142-19.46021C556.40643,742.88159,548.37164,734.57635,537.69208,734.26794z M592.23254,734.36877c-11.22839-0.24622-19.78485,8.07794-19.80664,19.26862c-0.02106,10.84351,8.00891,19.12097,18.7785,19.3573 c11.2265,0.24609,19.78491-8.0799,19.80658-19.26874C611.03198,742.88208,603.00232,734.60492,592.23254,734.36877z M379.07135,399.15955c10.73395-0.19409,18.7561-8.38971,18.77502-19.18109c0.01965-11.19073-8.4126-19.46576-19.62921-19.26318 c-10.7334,0.19385-18.75598,8.39014-18.77502,19.18134C359.42242,391.08691,367.8551,399.3623,379.07135,399.15955z M324.62091,506.67139c10.7265-0.302,18.65887-8.70911,18.46161-19.56647c-0.19574-10.76819-8.48822-18.80469-19.31158-18.71533 c-10.79004,0.08911-18.90979,8.28003-18.93036,19.09644C304.81915,498.68518,313.37933,506.98785,324.62091,506.67139z M696.95239,681.41534c-11.04944,0.17615-19.32367,8.87469-19.03284,20.00903c0.27924,10.69238,8.5531,18.76605,19.28546,18.81885 c11.1308,0.05475,19.56555-8.39709,19.50122-19.54071C716.64203,689.59393,708.0838,681.23792,696.95239,681.41534z M378.96326,681.95441c-10.21393-0.16833-18.75757,7.88989-19.17297,18.08368c-0.43146,10.58698,7.96075,19.49127,18.53461,19.66547 c10.21472,0.16846,18.75677-7.88849,19.17255-18.08362C397.9292,691.03271,389.53748,682.1286,378.96326,681.95441z M324.6449,451.58649c10.11273-0.3891,18.34668-9.14722,18.09314-19.24493c-0.25421-10.12543-8.88995-18.46942-18.98914-18.3479 c-10.11615,0.1217-18.55029,8.65076-18.56427,18.77313C305.1701,443.25134,314.20441,451.98822,324.6449,451.58649z M644.92273,734.81061c-10.55206-0.2254-19.2934,8.36914-19.2583,18.93481c0.03381,10.18951,8.27222,18.5899,18.4444,18.80743 c10.55164,0.22559,19.29358-8.36951,19.25824-18.93488C663.33301,743.42853,655.09448,735.02789,644.92273,734.81061z M697.00281,345.75262c9.9491,0.19055,18.76764-8.34814,18.9588-18.35754c0.19037-9.95953-8.33966-18.78711-18.33862-18.97852 c-9.94916-0.19043-18.76727,8.34833-18.95831,18.35785C678.47467,336.73389,687.00409,345.56122,697.00281,345.75262z M752.08795,398.60547c9.9903-0.05951,18.61578-8.77985,18.55627-18.76038c-0.05963-10.00037-8.77081-18.63495-18.74048-18.57568 c-9.9903,0.05933-18.61584,8.77948-18.55646,18.76019C733.40674,390.03027,742.11798,398.66486,752.08795,398.60547z M805.18591,575.03839c-9.65723-0.24091-18.1817,7.82349-18.57104,17.5686c-0.38684,9.68475,7.51886,18.27075,17.31635,18.8064 c10.01056,0.54749,18.93787-7.90131,19.04028-18.01941C823.06989,583.67542,814.93671,575.28162,805.18591,575.03839z M804.62061,521.85803c-9.96442,0.11322-18.59326,9.02441-18.33331,18.93298c0.25262,9.62793,8.59967,17.93329,18.20831,18.11713 c9.90936,0.1897,18.76166-8.50238,18.8031-18.46234C823.34003,530.50464,814.53827,521.74536,804.62061,521.85803z M324.91528,629.50189c-9.80347-0.60645-18.96674,7.76459-19.43292,17.75281c-0.45911,9.83594,8.03137,18.90582,17.99255,19.22034 c9.50891,0.30035,18.17328-7.62781,18.9176-17.31006C343.14636,639.3595,334.93555,630.12183,324.91528,629.50189z M431.76569,735.09344c-9.86133-0.20312-18.68915,8.3302-18.89337,18.26361c-0.20288,9.87177,8.32184,18.70892,18.24469,18.91321 c9.86151,0.20319,18.68896-8.33051,18.89313-18.26398C450.21295,744.13477,441.68835,735.29803,431.76569,735.09344z M538.73126,292.73071c9.90009,0.12415,18.69867-8.61493,18.66931-18.54315c-0.02832-9.56512-8.21423-18.0426-17.81989-18.45435 c-9.83215-0.42157-18.86469,8.10822-19.13867,18.07361C520.17023,283.68951,528.78772,292.60602,538.73126,292.73071z M591.49335,292.565c9.9231,0.14667,18.69843-8.64636,18.53973-18.57721c-0.15399-9.64178-8.45898-17.9469-18.08948-18.08972 c-9.9209-0.14703-18.69836,8.6485-18.53967,18.57806C573.55804,284.11951,581.86133,292.42261,591.49335,292.565z M805.17615,505.92584c9.63422-0.24188,17.93683-8.69012,17.99261-18.30823c0.05792-9.9693-8.83533-18.73145-18.75897-18.48236 c-9.63293,0.24176-17.93683,8.69141-17.99268,18.30817C786.35944,497.41266,795.25281,506.17499,805.17615,505.92584z M378.41052,345.04462c9.90912,0.13715,18.03741-7.79065,18.17462-17.72626c0.13696-9.91974-7.78204-18.05585-17.70776-18.1933 c-9.90912-0.13721-18.03705,7.79004-18.17413,17.72571C360.56628,336.77087,368.48499,344.90729,378.41052,345.04462z M483.98767,292.27692c9.86194,0.15125,18.12518-7.89368,18.27686-17.79395c0.15118-9.87207-7.88544-18.14429-17.77527-18.29608 c-9.86212-0.15137-18.12506,7.89337-18.27655,17.79388C466.06171,283.85278,474.09845,292.12512,483.98767,292.27692z M697.06909,735.84216c-9.96161,0.13629-17.71191,8.11041-17.57623,18.0838c0.13556,9.97186,8.10211,17.73157,18.06396,17.59528 c9.96143-0.13635,17.71307-8.11133,17.57697-18.08368C714.99762,743.46558,707.03082,735.70587,697.06909,735.84216z M752.37006,682.70465c-9.70648-0.22711-18.10773,7.73566-18.4798,17.5152c-0.38336,10.07556,8.08673,18.79395,18.20013,18.73358 c9.7569-0.05804,17.92426-8.21387,18.01038-17.98456C770.18671,691.21082,762.15137,682.93359,752.37006,682.70465z M324.21014,397.50067c10.14606-0.12805,17.66144-8.07227,17.29608-18.28345c-0.34888-9.75146-7.97205-16.96722-17.79407-16.8432 c-9.79517,0.12366-17.18713,7.53491-17.29645,17.34161C306.30206,389.91534,314.0202,397.62927,324.21014,397.50067z M644.10095,291.73413c10.18988,0.20612,17.92657-7.38275,17.89862-17.5567c-0.02692-9.80676-7.30927-17.25067-17.06915-17.44794 c-10.1911-0.20605-17.92682,7.38184-17.89874,17.55682C627.05872,284.0932,634.34088,291.5368,644.10095,291.73413z M803.91589,450.31848c10.2121,0.4436,18.19177-6.98328,18.39514-17.12048c0.19745-9.84747-6.91608-17.51489-16.64105-17.93689 c-10.20929-0.44293-18.19171,6.98657-18.39508,17.12091C787.07751,442.2301,794.18976,449.89606,803.91589,450.31848z M536.87042,789.1416c-9.81989,0.08002-17.17548,7.48425-17.20911,17.32281c-0.03485,10.20398,7.77374,17.77539,18.01019,17.46289 c9.73975-0.2973,16.92834-7.93909,16.73895-17.79388C554.22229,796.3454,546.70331,789.0614,536.87042,789.1416z M431.71912,291.40491c9.66803-0.13489,17.01245-7.72913,16.87714-17.45111c-0.13477-9.67822-7.72107-17.0304-17.43292-16.89484 c-9.66779,0.13489-17.01288,7.72968-16.8775,17.45117C414.42065,284.18793,422.00739,291.54028,431.71912,291.40491z M804.70612,630.76532c-9.75873,0.04132-17.14685,7.51257-17.10577,17.29803c0.04095,9.76862,7.50458,17.16479,17.27966,17.12366 c9.75861-0.04114,17.14709-7.51263,17.10577-17.29797C821.94458,638.11877,814.48212,630.72382,804.70612,630.76532z M270.88507,523.13226c-9.77118,0.13336-17.08789,7.69885-16.95392,17.53033c0.13324,9.78137,7.69098,17.10577,17.51208,16.97156 c9.77051-0.13348,17.08813-7.69977,16.95422-17.53046C288.26428,530.32349,280.70538,522.99823,270.88507,523.13226z M378.36609,736.50891c-9.66809,0.13489-17.01239,7.72906-16.87695,17.45117c0.13483,9.67841,7.72101,17.03021,17.43304,16.89459 c9.66779-0.13501,17.01282-7.7298,16.87732-17.45129C395.66461,743.7254,388.078,736.37341,378.36609,736.50891z M591.99823,789.28339c-9.82086-0.13446-17.37903,7.19-17.51257,16.97119c-0.13422,9.83124,7.18262,17.3974,16.95337,17.53094 c9.82037,0.13422,17.37982-7.19128,17.51282-16.97101C609.08557,796.98309,601.76892,789.41718,591.99823,789.28339z M270.88354,504.69019c9.68311,0.13782,17.28491-7.22705,17.42206-16.87903c0.1377-9.69458-7.21808-17.30316-16.86102-17.44037 c-9.68311-0.13776-17.2851,7.22711-17.42224,16.87885C253.88458,496.94275,261.24194,504.55286,270.88354,504.69019z M324.38739,683.69025c-9.74628-0.21033-17.45178,7.23206-17.54657,16.94775c-0.09167,9.38672,6.9436,16.89777,16.22382,17.32117 c9.76978,0.44568,17.69568-6.79865,18.01727-16.46796C341.4068,691.7243,334.06818,683.89923,324.38739,683.69025z M697.27856,291.0976c9.10822,0.02124,16.86121-7.70825,16.88257-16.8313c0.0213-9.11707-7.70105-16.87897-16.81409-16.90027 c-9.10724-0.0213-16.86108,7.70941-16.88226,16.83191C680.4436,283.31641,688.16412,291.07635,697.27856,291.0976z M751.76294,344.15717c9.62994,0.12036,17.28796-7.44293,17.28754-17.07367c-0.00061-9.25763-7.15991-16.73132-16.35358-17.07141 c-9.62708-0.35614-17.51947,7.02496-17.75568,16.6051C734.70361,336.25244,742.16962,344.03723,751.76294,344.15717z M271.24023,576.16333c-9.62732-0.03918-17.21228,7.59009-17.13074,17.23071c0.07831,9.25555,7.29572,16.64972,16.51001,16.91437 c9.617,0.27618,17.44006-7.17456,17.59918-16.76178C288.37878,583.90643,280.85419,576.20245,271.24023,576.16333z M804.06183,396.80304c9.04633,0.42639,17.15009-7.01099,17.57916-16.13379c0.4259-9.05591-7.0033-17.16766-16.11682-17.59747 c-9.04791-0.4267-17.14996,7.00916-17.5791,16.13373C787.51923,388.26111,794.94891,396.37347,804.06183,396.80304z M645.1593,789.58215c-9.15875-0.34729-17.09583,6.9137-17.56885,16.0722c-0.4928,9.54431,7.20032,17.73334,16.75281,17.8324 c9.18152,0.09515,16.88635-7.35602,17.10699-16.54376C661.67078,797.75708,654.32581,789.92981,645.1593,789.58215z M483.98383,789.39575c-9.69843,0.12695-17.10742,7.87134-16.86603,17.62939c0.23071,9.32751,7.5592,16.54468,16.90454,16.64789 c9.75739,0.10785,17.34601-7.40253,17.33685-17.15784C501.3501,796.76941,493.73657,789.26807,483.98383,789.39575z M271.03674,449.64069c9.08289,0.078,16.88208-7.61237,16.96008-16.72333c0.07788-9.09247-7.60449-16.89984-16.70581-16.97766 c-9.08484-0.07776-16.88196,7.6106-16.95972,16.7229C254.25372,441.75568,261.93512,449.5625,271.03674,449.64069z M271.05103,631.37061c-8.6283,0.07111-16.25525,7.59253-16.47528,16.24744c-0.22766,8.9552,7.72998,17.03796,16.70135,16.96399 c8.62903-0.07123,16.255-7.59186,16.47498-16.24756C287.97961,639.37897,280.02246,631.29675,271.05103,631.37061z M752.48236,736.97803c-8.58215-0.29047-16.40625,6.79694-17.12634,15.51349c-0.73389,8.88666,6.62305,17.2691,15.68463,17.87042 c8.88892,0.58984,17.18896-6.91858,17.64081-15.95807C769.12701,745.48938,761.49835,737.28296,752.48236,736.97803z M431.37592,789.83075c-9.00348,0.0423-16.8075,8.02631-16.62085,17.00427c0.17993,8.65149,7.63324,16.16028,16.28162,16.40289 c8.95306,0.25116,16.98236-7.51642,17.09076-16.53363C448.23553,797.71619,440.36523,789.78857,431.37592,789.83075z M805.14679,684.33984c-8.89789-0.22595-16.89984,7.67029-16.82562,16.60309c0.07123,8.57031,7.53925,16.15735,16.11804,16.37524 c8.89417,0.22577,16.8999-7.67377,16.82574-16.60303C821.19385,692.14496,813.72565,684.55743,805.14679,684.33984z M379.05237,290.57562c8.66705-0.24988,16.02502-7.88513,15.91821-16.51813c-0.10724-8.66223-7.62231-16.13226-16.26654-16.16919 c-8.98474-0.03839-16.79254,8.05536-16.38654,16.98676C362.71259,283.56671,370.44769,290.82367,379.05237,290.57562z M857.58228,523.96222c-8.6344,0.00494-16.25458,7.53137-16.39557,16.19366c-0.14624,8.99023,7.92963,16.95453,16.88159,16.64825 c8.67725-0.29694,16.07471-8.03741,15.92517-16.66388C873.84338,531.48029,866.21198,523.95728,857.58228,523.96222z M324.30164,343.63312c8.59949-0.20953,16.11029-7.82635,16.19092-16.41956c0.08374-8.92822-7.9751-16.89435-16.87177-16.67755 c-8.59967,0.20947-16.11011,7.82623-16.1908,16.4198C307.34625,335.88416,315.40472,343.84991,324.30164,343.63312z M697.22632,790.44678c-8.53571,0.04865-15.63989,6.92297-15.98389,15.46655c-0.35724,8.87927,6.78186,16.48401,15.68579,16.70905 c8.88165,0.2243,16.36871-7.02734,16.45587-15.93872C713.47119,797.7702,706.133,790.39612,697.22632,790.44678z M538.68176,235.67316c8.7757,0.14374,16.26007-7.1297,16.40411-15.94171c0.14362-8.78491-7.12225-16.27722-15.92505-16.42139 c-8.7757-0.14374-16.25983,7.12958-16.40375,15.94171C522.61365,228.03741,529.8786,235.52899,538.68176,235.67316z M591.79651,235.47833c8.94067-0.04395,16.06885-7.35504,15.89197-16.2998c-0.17651-8.92535-7.60901-15.97809-16.5174-15.67346 c-8.55432,0.29248-15.33783,7.25525-15.42218,15.82971C575.66083,228.289,582.85114,235.52228,591.79651,235.47833z M857.82178,503.79468c8.78528-0.14154,16.15686-7.73395,16.01611-16.49597c-0.14111-8.79034-7.73016-16.17395-16.47925-16.03308 c-8.78101,0.14136-16.15686,7.73846-16.01617,16.49664C841.48364,496.55292,849.07227,503.93567,857.82178,503.79468z M857.34729,577.24921c-8.92065,0.13739-15.99323,7.54181-15.72699,16.4649c0.25537,8.5614,7.18347,15.38599,15.74329,15.50812 c8.93884,0.12762,16.20117-7.04419,16.19659-15.99457C873.55554,584.27655,866.2854,577.11151,857.34729,577.24921z M805.20435,342.49792c8.7959-0.2005,15.18732-6.94989,14.98535-15.82477c-0.19946-8.76373-6.9845-15.20288-15.8078-15.00177 c-8.75397,0.19946-15.18701,6.99255-14.9859,15.82495C789.59521,336.25946,796.38116,342.69897,805.20435,342.49792z M858.00122,448.31415c8.7359-0.19879,15.18561-6.90674,15.09662-15.70129c-0.08862-8.76147-6.69019-15.31854-15.45087-15.34662 c-9.12598-0.02917-15.88953,6.99719-15.56439,16.16937C842.39124,442.14453,849.20624,448.51428,858.00122,448.31415z M378.82184,791.12122c-8.82678-0.08905-15.48608,6.42517-15.57483,15.23535c-0.08899,8.83673,6.41803,15.5025,15.21924,15.59064 c8.82758,0.08838,15.48615-6.4248,15.57483-15.23474C394.13013,797.87646,387.62274,791.21002,378.82184,791.12122z M751.81427,289.64514c8.82678,0.09106,15.48798-6.42175,15.57855-15.23151c0.09082-8.83624-6.41492-15.50421-15.21564-15.59479 c-8.82758-0.09094-15.48785,6.42096-15.57843,15.23126C736.50793,282.88629,743.01392,289.55444,751.81427,289.64514z M644.92682,234.90491c8.75415-0.19952,15.18683-6.99243,14.98596-15.82495c-0.20038-8.80988-6.93787-15.20355-15.80798-15.00116 c-8.75482,0.19977-15.18683,6.99146-14.98608,15.82428C629.31769,228.66614,636.10388,235.10602,644.92682,234.90491z M271.5957,395.72394c8.67218-0.21716,15.31781-7.04047,15.33801-15.74799c0.02106-9.06598-7.13104-16.05194-16.20135-15.82495 c-8.67377,0.2171-15.31818,7.03918-15.33813,15.74823C255.37335,388.96527,262.52545,395.95099,271.5957,395.72394z M484.30634,235.27789c8.70117-0.03552,15.49945-6.69592,15.7019-15.38348c0.21161-9.08032-6.77893-16.22626-15.8374-16.18921 c-8.70172,0.03552-15.49963,6.69562-15.70221,15.38373C468.2569,228.16937,475.24744,235.31488,484.30634,235.27789z M324.5448,737.97046c-9.08423-0.29816-16.21698,6.5354-16.27826,15.59558c-0.05908,8.72162,6.45343,15.54272,15.1109,15.82684 c9.08179,0.29828,16.21735-6.5379,16.27856-15.59558C339.71497,745.07599,333.20197,738.25458,324.5448,737.97046z M431.41132,234.65753c8.69037,0.01666,15.41504-6.89642,15.17999-15.60559c-0.22424-8.30951-6.79761-14.71161-15.12006-14.72601 c-8.68927-0.01508-15.41492,6.89893-15.18018,15.60522C416.51526,228.24091,423.0871,234.6416,431.41132,234.65753z M858.05219,632.68365c-8.80853-0.23157-15.62299,6.29126-15.73853,15.06531c-0.11609,8.81769,6.48871,15.52417,15.28418,15.51953 c8.79022-0.00458,15.3924-6.72211,15.26868-15.53522C872.74847,639.32172,866.43121,632.90417,858.05219,632.68365z M804.90027,738.64594c-8.09613-0.06177-14.93597,6.5824-15.1275,14.69464c-0.19977,8.46484,6.92468,15.58789,15.38,15.37708 c8.1026-0.20209,14.73322-7.05963,14.66034-15.16241C819.74017,745.43317,813.013,738.70764,804.90027,738.64594z M857.48547,394.89917c8.02386,0.06293,14.98737-6.81085,15.05121-14.85736c0.06378-8.03186-6.80334-15.00275-14.84229-15.06665 c-8.02332-0.06378-14.987,6.81073-15.05078,14.85797C842.58002,387.86444,849.44806,394.83624,857.48547,394.89917z M219.12787,502.66473c8.20288-0.39557,14.51379-7.17651,14.35901-15.42834c-0.1546-8.24384-6.70587-14.74933-14.94604-14.8418 c-8.61523-0.09662-15.45599,6.80475-15.29419,15.42969C203.40784,496.42273,210.53131,503.07928,219.12787,502.66473z M323.51379,289.19415c7.99438,0.26178,15.13104-6.46704,15.39398-14.51434c0.26141-8.00128-6.46161-15.14667-14.49921-15.41003 c-7.99408-0.26196-15.13086,6.46692-15.39386,14.51416C308.75317,281.7868,315.47479,288.93085,323.51379,289.19415z M484.54083,846.17133c-8.26068-0.16412-15.10065,6.30939-15.38995,14.56543c-0.30261,8.63336,6.62732,15.73846,15.25586,15.6416 c8.26074-0.09277,14.88177-6.76593,14.91907-15.03644C499.3631,853.07092,492.79883,846.33563,484.54083,846.17133z M537.78284,846.03748c-8.7215-0.38074-15.70959,6.06232-15.96869,14.72345c-0.24994,8.35413,5.78851,15.13165,14.00757,15.72192 c8.72491,0.62659,15.92651-5.61273,16.42078-14.2265C552.74396,853.5177,546.41083,846.41418,537.78284,846.03748z M219.13806,525.18414c-8.75018-0.40466-15.79675,6.17487-15.95532,14.89795c-0.15265,8.39111,6.09985,15.11481,14.41278,15.49908 c8.75177,0.40454,15.79681-6.17328,15.95538-14.89716C233.70349,532.29309,227.45044,525.56854,219.13806,525.18414z M592.4068,846.10901c-8.68518-0.36719-15.71967,6.27124-15.83844,14.94653c-0.11401,8.33038,6.18915,15.03577,14.46228,15.38531 c8.68555,0.36694,15.71979-6.27179,15.83765-14.94708C606.98157,853.16241,600.6803,846.45868,592.4068,846.10901z M218.47479,578.17365c-8.19543-0.06049-14.96741,6.51691-15.15485,14.71967c-0.19604,8.573,6.84399,15.61169,15.40771,15.40527 c8.19312-0.19757,14.75684-6.98645,14.68579-15.18945C233.34235,584.90021,226.67487,578.23419,218.47479,578.17365z M271.58838,685.5108c-8.84119-0.21198-15.63062,6.3197-15.72607,15.12891c-0.0918,8.47919,6.03772,15.07233,14.4071,15.49677 c8.84802,0.44873,15.87402-5.90509,16.19666-14.64709C286.79272,692.63721,280.35297,685.72095,271.58838,685.5108z M752.10004,791.57227c-8.02338-0.06384-14.98706,6.81049-15.05084,14.85779c-0.06372,8.03186,6.80341,15.0025,14.84247,15.06659 c8.02258,0.0639,14.98743-6.81165,15.05035-14.85748C767.00488,798.60699,760.13818,791.63623,752.10004,791.57227z M697.45996,234.43073c7.99072-0.08978,14.86609-7.10925,14.77655-15.0863c-0.08978-7.99902-7.10199-14.88171-15.07062-14.79205 c-7.99084,0.08984-14.86523,7.10876-14.77606,15.08649C682.47931,227.63873,689.49017,234.5202,697.45996,234.43073z M218.25989,447.63647c7.91852,0.0675,15.01733-7.0484,14.93744-14.97345c-0.07629-7.57812-6.66516-14.38098-14.2558-14.71918 c-7.87494-0.35083-15.19696,6.5434-15.4054,14.50513C203.32886,440.36499,210.31268,447.56873,218.25989,447.63647z M270.80249,341.96283c7.94189,0.21924,15.14355-6.75867,15.22351-14.75079c0.07965-7.95575-7.02051-15.07294-14.9693-15.00537 c-7.60168,0.06464-14.40625,6.6507-14.75507,14.28131C255.9397,334.40576,262.81439,341.74225,270.80249,341.96283z M644.6983,846.35431c-8.03278-0.11243-15.12006,6.92145-15.08704,14.97333c0.03156,7.67279,6.56653,14.49042,14.25104,14.86737 c7.97882,0.39148,15.30646-6.4386,15.55823-14.50177C659.67096,853.67407,652.75366,846.46698,644.6983,846.35431z M218.27051,633.40094c-7.61163,0.0592-14.38,6.81488-14.46454,14.4375c-0.08429,7.59778,6.55884,14.48639,14.18872,14.71338 c7.94104,0.23602,15.14117-6.95154,14.93201-14.90613C232.72589,640.00995,225.86523,633.34186,218.27051,633.40094z M431.24347,846.62909c-7.62561,0.12152-14.40851,6.98761-14.43146,14.60834c-0.02405,7.98328,7.39783,15.10669,15.29736,14.68213 c7.65112-0.41119,14.22339-7.5094,13.9613-15.07831C445.80579,853.19269,438.83191,846.50824,431.24347,846.62909z M857.90247,686.18329c-7.57538-0.1886-14.60583,6.44507-14.94153,14.0979c-0.3479,7.93207,6.81799,15.29443,14.78741,15.19269 c7.62347-0.09735,14.42432-6.94348,14.47162-14.56805C872.26715,693.2962,865.53467,686.37329,857.90247,686.18329z M270.81378,739.36792c-7.828,0.20959-14.29309,7.11548-13.94891,14.90021c0.3302,7.46838,6.72388,13.65894,14.17816,13.7276 c7.82062,0.07214,14.48804-6.5993,14.4198-14.42877C285.39453,745.72784,278.61743,739.15906,270.81378,739.36792z M378.87598,233.94366c7.70508-0.14117,14.34412-7.0047,14.20367-14.68396c-0.14124-7.71399-6.99622-14.35956-14.66736-14.21893 c-7.70587,0.14136-14.34448,7.00378-14.2038,14.68298C364.34961,227.43707,371.20599,234.08417,378.87598,233.94366z M804.87769,288.32928c7.63861-0.04517,13.78918-6.06958,13.99768-13.71033c0.21857-8.01025-6.1601-14.53186-14.1673-14.48438 c-7.63788,0.04529-13.78973,6.0705-13.99823,13.71027C790.49091,281.85541,796.86969,288.37665,804.87769,288.32928z M910.66388,526.28577c-7.63593-0.15033-13.95038,5.72369-14.35077,13.34967c-0.41998,7.99957,5.79596,14.68756,13.79767,14.84521 c7.63544,0.15051,13.95325-5.72559,14.35284-13.34924C924.88312,533.1322,918.66541,526.4433,910.66388,526.28577z M324.33398,792.22058c-7.8009-0.22192-14.58978,6.33801-14.67157,14.17664c-0.08167,7.82739,6.57599,14.51001,14.39734,14.45123 c7.83087-0.05872,14.3999-6.8349,14.20056-14.64813C338.06982,798.73328,331.79333,792.4328,324.33398,792.22058z M218.95612,393.65405c7.7691-0.29321,13.29315-6.22174,13.11292-14.07294c-0.17877-7.7868-6.01184-13.42383-13.82458-13.36017 c-7.79718,0.06354-13.52222,5.79913-13.57977,13.6048C204.60443,387.99866,210.76862,393.96307,218.95612,393.65405z M910.47443,501.40778c8.07202-0.04865,14.06927-6.33154,13.77594-14.43146c-0.27856-7.68182-6.23413-13.36993-13.9502-13.32336 c-7.71942,0.04663-13.58228,5.79126-13.77551,13.49811C896.32166,495.24823,902.39624,501.45642,910.47443,501.40778z M539.30017,180.51617c8.04645-0.20203,13.92194-6.62219,13.47382-14.72296c-0.42328-7.65247-6.50989-13.22577-14.23187-13.0318 c-7.69824,0.19336-13.43689,6.06262-13.4834,13.79028C525.01007,174.638,531.21191,180.7193,539.30017,180.51617z M591.5025,180.35547c7.82794,0.1109,13.69336-5.47998,13.91809-13.26654c0.22614-7.83801-5.27869-13.82831-13.01868-14.16669 c-8.18494-0.35773-14.39508,5.57104-14.38562,13.73407C578.02527,174.46136,583.7193,180.24524,591.5025,180.35547z M698.2085,847.41388c-8.09332-0.47705-14.53046,5.3808-14.75854,13.4306c-0.21899,7.73389,5.32227,13.84052,12.96796,14.29083 c8.09399,0.47675,14.52985-5.38037,14.75751-13.43024C711.39417,853.96759,705.85693,847.86493,698.2085,847.41388z M910.04364,579.51929c-7.78021,0.17303-13.41528,6.00586-13.35822,13.82715c0.05695,7.80634,5.78113,13.54211,13.57843,13.60602 c8.16486,0.06683,14.1283-6.09863,13.82593-14.29437C923.80273,584.88025,917.88513,579.34485,910.04364,579.51929z M804.33209,793.15442c-7.3526,0.22931-12.90057,5.97748-12.9046,13.37036c-0.00421,7.76074,6.05829,13.63184,13.82635,13.38965 c7.35309-0.22925,12.90051-5.97668,12.90503-13.37054C818.16357,798.78455,812.09955,792.91229,804.33209,793.15442z M218.54633,687.38306c-7.42383-0.08923-13.17279,5.22168-13.59991,12.56403c-0.45331,7.79333,5.08124,14.00189,12.77307,14.32806 c7.79016,0.33063,13.86841-5.29596,14.07892-13.03241C232.01068,693.44196,226.3067,687.47638,218.54633,687.38306z M378.00604,847.79926c-7.38818,0.30579-12.79181,5.95648-12.82343,13.40961c-0.0332,7.83209,5.80255,13.62994,13.63037,13.54169 c7.80408-0.08795,13.49939-6.03485,13.2926-13.87982C391.9007,853.09454,385.83917,847.47504,378.00604,847.79926z M910.4198,446.23584c7.77179-0.01727,13.53857-5.91888,13.39954-13.71259c-0.13226-7.40588-5.61646-12.96747-12.99652-13.1792 c-7.79413-0.22369-13.76233,5.47638-13.86737,13.24457C896.84998,440.38074,902.6438,446.25317,910.4198,446.23584z M857.22241,340.66559c7.8504,0.1853,13.75043-5.409,13.93469-13.21277c0.18579-7.85767-5.40387-13.76489-13.19916-13.94934 c-7.84967-0.18579-13.75024,5.40942-13.93451,13.21326C843.83789,334.57831,849.42389,340.48157,857.22241,340.66559z M270.9812,287.51868c7.32861,0.09662,13.23962-5.5564,13.45514-12.8678c0.21613-7.33179-5.34271-13.36963-12.61816-13.70544 c-7.33093-0.3385-13.45911,5.12103-13.91479,12.39642C257.42029,281.0556,263.28876,287.4173,270.9812,287.51868z M644.56775,180.01849c7.3855-0.02576,13.1059-5.59436,13.3136-12.96051c0.21948-7.77496-5.66467-13.82648-13.41736-13.79901 c-7.38666,0.02625-13.1059,5.59381-13.31409,12.96106C630.9303,173.99432,636.81458,180.04553,644.56775,180.01849z M752.35602,233.03955c7.76703-0.18073,13.35522-6.08087,13.17352-13.90869c-0.18054-7.77576-6.07336-13.36865-13.89398-13.18683 c-7.7699,0.18054-13.35535,6.07727-13.17352,13.90814C738.6424,227.62732,744.53644,233.2215,752.35602,233.03955z M484.21002,180.22009c7.84662,0.01434,13.58063-5.70184,13.59503-13.5528c0.0144-7.85931-5.69092-13.59473-13.5379-13.60931 c-7.84674-0.01453-13.58118,5.7016-13.59564,13.55219C470.6571,174.46466,476.36804,180.20575,484.21002,180.22009z M910.69806,634.68982c-7.32562-0.16107-13.3028,5.4447-13.5835,12.73975c-0.29669,7.71033,5.73615,13.92291,13.43353,13.8335 c7.3291-0.08514,13.07178-5.87177,13.11182-13.21191C923.70001,640.70654,918.01941,634.85089,910.69806,634.68982z M857.7854,740.41864c-7.63934-0.10724-13.72351,6.12598-13.44421,13.77344c0.26483,7.24707,6.25543,12.89612,13.52411,12.75281 c7.27271-0.14343,12.99652-6.01184,12.97498-13.30316C870.81879,746.35486,865.0589,740.52081,857.7854,740.41864z M323.89728,232.62775c7.06635,0.03741,13.14899-5.99219,13.18658-13.07184c0.03766-7.07324-5.98633-13.16266-13.05835-13.20026 c-7.06665-0.03754-13.14899,5.99194-13.1864,13.07178C310.80164,226.5014,316.82501,232.59021,323.89728,232.62775z M431.50586,179.83496c7.17181-0.03729,13.15381-6.08478,13.117-13.26056c-0.0368-7.17871-6.07855-13.16785-13.24609-13.13092 c-7.17133,0.03693-13.15387,6.08496-13.11688,13.26007C418.29694,173.88232,424.33899,179.87219,431.50586,179.83496z M536.83301,900.99152c-7.07605,0.11523-13.03436,6.26697-12.91943,13.33899c0.11511,7.08301,6.26123,13.04858,13.32495,12.93335 c7.0769-0.11536,13.03448-6.26648,12.91943-13.33911C550.04279,906.84119,543.89746,900.87653,536.83301,900.99152z M910.50366,392.88434c6.62708-0.06921,12.61273-5.95007,12.81757-12.59314c0.21497-6.97003-6.06714-13.37292-13.04956-13.30029 c-6.62903,0.06897-12.612,5.94739-12.81702,12.59296C897.23956,386.55444,903.52136,392.95721,910.50366,392.88434z M165.28809,474.55231c-7.57306,0.55316-12.04138,5.00604-12.68054,12.56799c-0.58911,6.97107,5.75079,13.35114,12.78052,13.45953 c7.02631,0.10834,13.24951-6.06073,13.2171-13.10223C178.57281,480.43384,172.27759,474.04163,165.28809,474.55231z M644.91901,901.36285c-6.58148-0.2384-12.77185,5.46875-13.1543,12.12708c-0.39899,6.95142,5.80914,13.44348,12.81616,13.40216 c6.67633-0.03943,12.58569-5.90576,12.68762-12.59534C657.36987,907.64099,651.60681,901.6051,644.91901,901.36285z M591.78888,901.01617c-7.02814-0.04126-13.12634,5.99841-13.16766,13.04108c-0.04126,7.03564,5.99182,13.14069,13.02692,13.18243 c7.02686,0.04156,13.12634-5.99957,13.16772-13.04169C604.85724,907.16229,598.82428,901.05768,591.78888,901.01617z M271.4859,793.72614c-6.61792-0.18988-12.78253,5.56842-13.11572,12.25116c-0.34839,6.98584,5.91919,13.45825,12.94165,13.36456 c6.69415-0.08929,12.59436-6.02411,12.64673-12.72064C284.0108,799.94238,278.18396,793.91803,271.4859,793.72614z M163.8371,580.32764c-6.94061-0.09564-13.23798,6.28699-13.04633,13.22296c0.18304,6.62512,6.1283,12.50104,12.74011,12.59204 c6.94104,0.0954,13.23798-6.28632,13.04626-13.22168C176.39398,586.29669,170.44757,580.4187,163.8371,580.32764z M751.36041,848.30066c-7.51154,0.79761-11.93103,5.30139-12.32983,12.91815c-0.36761,7.02399,6.11285,13.20959,13.13989,13.1051 c7.0293-0.10449,13.10059-6.45801,12.8606-13.45868C764.7901,853.83258,758.28241,847.56573,751.36041,848.30066z M164.86627,445.44666c6.63794,0.42053,12.91815-5.20441,13.34442-11.95227c0.41998-6.64648-5.19684-12.93182-11.93774-13.35864 c-6.63953-0.42041-12.91821,5.20233-13.34442,11.95038C152.50885,438.73029,158.12848,445.01971,164.86627,445.44666z M218.27448,340.05768c6.62463,0.05444,12.72308-5.74438,13.0506-12.40948c0.34222-6.96539-5.84747-13.47717-12.86584-13.53516 c-6.62463-0.05487-12.72308,5.74371-13.05042,12.40863C205.06671,333.48669,211.25751,340.00006,218.27448,340.05768z M697.57318,179.54761c6.61389-0.15155,12.51086-6.08044,12.63281-12.70123c0.12756-6.93103-6.23309-13.27264-13.1535-13.1142 c-6.61414,0.15137-12.5108,6.07935-12.63269,12.6994C684.2923,173.36224,690.6543,179.70618,697.57318,179.54761z M163.49048,527.40515c-7.58734,0.49323-12.06891,4.93195-12.7688,12.47925c-0.64526,6.95898,5.66095,13.3891,12.69147,13.5481 c7.01794,0.15875,13.28424-5.96924,13.3064-13.01294C176.74176,533.37793,170.49243,526.95001,163.49048,527.40515z M484.18292,901.15594c-6.6427,0.03314-12.66223,5.89148-12.9024,12.5567c-0.25183,6.9892,6.00201,13.42242,13.01404,13.38715 c6.64105-0.03339,12.6629-5.8938,12.90295-12.55707C497.44922,907.55377,491.19531,901.12091,484.18292,901.15594z M856.88959,286.69452c6.74719,0.41132,13.14886-5.17975,13.07257-11.99512c-0.08081-7.2298-3.99396-11.7713-11.2182-12.7876 c-6.72784-0.94653-13.00452,4.52759-13.55994,11.38818C844.63837,280.03992,850.09174,286.28015,856.88959,286.69452z M164.22675,635.82367c-6.94849-0.56775-12.90466,5.09601-12.67926,12.07147c0.23657,7.32092,4.29596,11.62067,11.59412,12.22998 c6.94806,0.58032,12.69348-5.08533,12.74036-12.54413C175.3299,640.79303,171.54883,636.42212,164.22675,635.82367z M910.62061,688.22699c-6.70416-0.1402-12.68115,5.62579-12.8219,12.36871c-0.13983,6.71094,5.62024,12.69507,12.35565,12.836 c6.70288,0.1402,12.6814-5.6272,12.82208-12.3692C923.11639,694.35144,917.35638,688.36792,910.62061,688.22699z M324.29114,848.88177c-6.76575-0.51593-12.71796,5.47003-12.77759,12.29254c-0.05951,6.81628,5.77527,12.64209,12.58179,12.56238 c6.81549-0.07983,12.7818-6.05658,12.24597-12.82526C335.76904,853.68048,331.51855,849.4328,324.29114,848.88177z M803.64203,231.74316c6.76178,0.91748,12.94318-4.4635,13.48517-11.32227c0.53552-6.77832-4.82489-12.91461-11.63525-13.31958 c-6.77112-0.40259-13.06708,5.10242-13.00262,11.92383C792.55743,226.23419,796.41351,230.76233,803.64203,231.74316z M432.13995,901.73724c-6.77118-0.40253-13.06714,5.10266-13.00244,11.92401c0.06842,7.20905,3.92438,11.73724,11.15308,12.71777 c6.76172,0.91742,12.94324-4.46381,13.48505-11.32245C444.3111,908.27832,438.9505,902.14215,432.13995,901.73724z M378.86255,179.02747c6.83136-0.12897,12.41949-6.03149,12.15735-12.84131c-0.2627-6.82471-6.31488-12.5752-13.05444-11.87213 c-7.18402,0.74951-11.30646,5.06439-11.63306,12.3125C366.02502,173.44812,372.04437,179.15607,378.86255,179.02747z M218.34509,741.28839c-7.25195,0.354-11.5874,4.52161-12.35767,11.72083c-0.71942,6.72461,5.12201,12.8692,11.93506,13.13312 c6.77954,0.26282,12.76642-5.42645,12.89197-12.25079C230.93976,747.0827,225.14258,740.95667,218.34509,741.28839z M697.76379,902.43164c-7.36823-0.19714-11.86212,3.82288-12.12048,11.24554c-0.25653,7.36926,3.80365,11.85297,11.21991,12.13861 c7.41547,0.28546,11.39374-3.94617,12.36121-11.63379C708.64941,907.40826,705.3053,902.63336,697.76379,902.43164z M752.05896,178.13507c7.02057-0.23077,10.98639-4.0799,11.4173-11.09424c0.41718-6.78998-4.76184-11.97174-11.54535-11.93896 c-6.39368,0.03088-11.26044,4.75867-11.46033,11.13275C740.25732,173.03973,745.27924,178.35815,752.05896,178.13507z M163.79681,689.59625c-7.02948-0.03235-11.25397,4.08673-11.32446,11.12054c-0.07043,7.03424,4.07159,11.23486,11.10022,11.34454 c7.10638,0.11084,10.67828-4.2594,11.57153-11.10468C174.39362,694.06274,170.90118,689.62897,163.79681,689.59625z M805.07886,849.79376c-6.745-0.31299-12.03674,4.91174-11.74664,11.65991c0.30121,7.00665,4.18164,10.9278,11.17596,11.29279 c6.74225,0.35187,11.88287-4.89655,11.77032-12.92352C815.64948,854.24963,812.14728,850.12164,805.07886,849.79376z M911.98914,338.80011c7.31537-0.57458,11.75562-4.20135,11.79004-11.70703c0.03198-6.95679-3.86835-11.17706-10.80371-11.50903 c-7.35596-0.35217-11.88385,3.58002-12.19415,11.03009C900.47058,334.07532,904.76477,337.9408,911.98914,338.80011z M271.56592,230.97046c7.06116-0.39856,10.52954-4.55981,11.22174-11.38672c-0.61023-6.89484-4.04175-11.09137-11.09375-11.56989 c-6.74066-0.45752-12.00073,4.67542-12.03296,11.41345C259.6286,226.19141,264.80719,231.35205,271.56592,230.97046z M590.49988,125.22778c6.69086,0.65387,12.45142-4.05731,12.64374-10.68811c0.20135-6.94012-3.29077-11.22955-10.21344-12.14587 c-6.66107-0.88165-12.2851,4.01343-12.68262,10.63751C579.8681,119.35516,584.2948,124.62134,590.49988,125.22778z M965.22577,499.00366c6.99994-0.28796,10.92548-4.164,11.30377-11.16473c0.36493-6.75275-4.86536-11.90607-11.61694-11.82367 c-6.35474,0.07751-11.19202,4.85449-11.34637,11.20441C953.4021,493.97992,958.48468,499.28088,965.22577,499.00366z M218.67834,285.78131c6.78149-0.87213,11.06409-4.44122,11.01917-11.55615c-0.04437-7.0379-4.0791-11.00891-11.10577-11.37335 c-6.71844-0.34845-12.05743,5.13-11.59918,11.85486C207.47589,281.79895,211.71698,285.21741,218.67834,285.78131z M379.02606,902.59833c-6.96112,0.53815-11.39215,3.9364-11.68549,11.00189c-0.29065,6.99884,3.57739,11.17749,10.54364,11.88281 c6.65802,0.67432,12.26569-4.60742,12.11871-11.29205C389.84674,907.09326,385.7644,903.51349,379.02606,902.59833z M538.53497,125.25665c6.75684,0.41138,11.92938-4.78339,11.88202-12.82422c-0.57263-5.58063-4.04797-9.73578-11.10864-10.12659 c-6.75909-0.37408-12.08008,4.79755-11.84869,11.55762C527.69952,120.87494,531.54639,124.83124,538.53497,125.25665z M484.12878,125.15698c7.09021-0.12848,10.68347-4.20056,11.62476-10.92572c-0.50482-6.9895-3.88885-11.43738-10.94183-11.76001 c-6.98718-0.31964-11.18079,3.5368-11.9129,10.508C472.19843,119.64789,477.44727,125.27826,484.12878,125.15698z M165.43036,391.48248c7.51019,0.11566,11.22015-4.3327,11.87897-11.64557c-0.76349-7.30182-4.56995-11.62158-12.06494-11.45343 c-6.96973,0.15619-11.06158,4.20636-11.20825,11.18109C153.87994,386.99011,157.96985,391.36755,165.43036,391.48248z M964.31519,528.62128c-6.48712,1.07098-11.03943,4.60394-10.75897,12.17578c0.25745,6.95129,4.28497,10.99695,11.23279,11.09436 c7.40662,0.10388,11.71283-4.02191,11.77563-11.45953C976.62793,532.93121,972.1571,529.27844,964.31519,528.62128z M858.05853,794.78986c-7.36304,0.47614-11.88202,4.04419-12.01367,11.57745c-0.12177,6.97095,3.72565,11.27496,10.68231,11.69708 c7.36554,0.44714,11.98926-3.42468,12.39014-10.89893C869.51758,799.70605,865.28851,795.73065,858.05853,794.78986z M910.71576,742.46844c-6.99969-0.17371-11.31445,3.88995-11.52277,10.88525c-0.20844,7.00269,3.87573,11.29541,10.86676,11.54211 c7.07349,0.24939,10.72412-4.07123,11.76752-10.82434C921.20648,747.13849,917.7774,742.64355,910.71576,742.46844z M965.58313,581.86554c-7.07904-0.10455-10.82953,3.83368-11.84521,9.53833c-0.45575,7.40637,4.09375,12.89404,10.35309,13.17493 c6.98242,0.31335,11.31494-3.18231,12.28156-10.13477C977.29718,587.79236,972.24316,581.96381,965.58313,581.86554z M751.80383,903.01611c-6.41229,1.01819-10.68945,4.53467-10.67853,11.09644c0.01105,6.52423,4.12939,10.42682,10.62659,10.97211 c5.92822,0.49768,11.79572-5.49756,11.1922-11.40588C762.27875,907.164,758.2251,903.74341,751.80383,903.01611z M271.81488,850.32141c-5.85413-0.75922-11.94653,5.0415-11.60101,10.99463c0.38159,6.57605,4.37286,10.07129,10.78394,11.07086 c6.42273-0.74506,10.76831-4.17444,11.03448-10.69208C282.29968,855.14771,278.23938,851.1543,271.81488,850.32141z M165.3949,338.01367c6.56482-0.23859,10.10187-4.18286,11.14062-10.05182c0.25159-5.99939-4.73938-11.78485-10.32526-11.80292 c-6.55096-0.02124-10.56659,3.67291-11.53021,10.06219C153.80328,332.03461,159.44794,338.22974,165.3949,338.01367z M323.69318,177.73816c7.05457,0.21289,10.67194-4.23016,11.68164-11.52899c-1.09509-6.23822-4.52551-10.78137-11.61023-10.68707 c-6.53601,0.08698-10.65601,4.11646-10.89374,10.61444C312.61499,173.13098,316.72144,177.52777,323.69318,177.73816z M591.93817,956.31091c-6.5014-0.10638-10.72314,3.97668-10.86938,10.45044c-0.14679,6.49969,3.95972,10.72052,10.43115,10.88202 c6.52698,0.16327,10.08893-4.05066,11.13434-10.77429C601.76508,960.86316,598.49323,956.41815,591.93817,956.31091z M537.26959,956.28522c-6.51526-0.15887-10.74756,3.96838-10.92169,10.46136c-0.17578,6.55579,4.05682,10.13031,10.51215,11.16077 c6.37927-0.73608,10.72736-4.15564,10.86462-10.69208C547.86188,960.69037,543.75452,956.44293,537.26959,956.28522z M643.79205,124.88367c6.97955,0.41022,11.45172-3.64734,11.80859-10.60699c0.36206-7.05786-4.02728-10.75555-10.81683-11.85028 c-6.85089,0.76367-11.30414,4.26117-11.37378,11.33386C633.34534,120.32526,637.33466,124.50421,643.79205,124.88367z M857.34705,230.19049c6.5484,0.18274,10.12311-4.05188,11.15863-10.51361c-0.72839-6.38678-4.14215-10.74188-10.67065-10.88586 c-6.5177-0.1438-10.76416,3.9657-10.92859,10.45654C846.74127,225.7699,850.86212,230.00964,857.34705,230.19049z M965.13495,443.91431c7.08728-0.00647,10.5777-4.54285,11.30438-11.43835c-1.10663-6.81116-4.81256-11.13397-11.89917-10.81732 c-6.51807,0.29126-10.56378,4.39233-10.58771,10.96094C953.92682,439.64526,958.11639,443.92059,965.13495,443.91431z M964.95135,636.74017c-6.47546,0.97778-10.79901,4.43549-10.85297,10.98492c-0.05743,6.97699,4.22021,11.29114,11.18811,11.22986 c6.4917-0.05707,10.64642-4.22754,10.75702-10.72858C976.16357,641.18152,971.67889,637.59991,964.95135,636.74017z M218.55841,795.35413c-6.40674,0.68427-10.7923,4.07672-11.11743,10.52008c-0.34979,6.93158,3.83405,11.44928,10.72925,11.58362 c6.91467,0.1347,11.198-4.25745,11.1283-11.19006C229.23315,799.76532,224.91302,796.31036,218.55841,795.35413z M431.85236,124.88892c6.39667-1.16992,10.63489-4.75208,10.45978-11.32629c-0.17316-6.49841-4.33569-10.35303-10.867-10.73303 c-5.94226-0.3457-11.70795,5.79401-10.95062,11.64575C421.33179,120.94482,425.42157,124.32874,431.85236,124.88892z M110.35883,497.98981c6.50421,0.26831,10.7663-3.67017,10.97021-10.1629c0.2052-6.53168-3.93677-10.09949-10.40454-10.94934 c-6.40906,0.77472-10.53021,4.27002-10.4953,10.81696C100.46156,493.76514,104.34492,497.7417,110.35883,497.98981z M804.38654,176.91052c6.5957,0.1972,10.14484-3.78918,10.82556-10.21808c-0.60651-6.21582-3.89703-10.15808-10.01282-10.32379 c-6.57343-0.17798-10.62695,3.73004-10.66888,10.32562C794.49139,172.82294,798.28333,176.72809,804.38654,176.91052z M911.37891,284.46149c6.60022,0.50464,10.31714-3.28778,11.31598-9.85822c-0.37848-6.00653-3.37689-10.14935-9.52771-10.60345 c-6.58826-0.48633-10.7981,3.23401-11.1496,9.79517C901.69153,279.8833,905.24896,283.9928,911.37891,284.46149z M965.09235,390.59045c6.45325-0.83411,10.5412-4.37537,10.43396-10.92139c-0.0993-6.05707-4.00555-10.01074-10.03308-10.19305 c-6.50586-0.19684-10.73126,3.76807-10.86633,10.27008C954.49097,386.27979,958.66846,389.80066,965.09235,390.59045z M324.39917,903.90631c-6.21545-0.25012-10.30743,3.33142-10.62762,9.54907c-0.34332,6.66766,3.49103,10.82635,10.2179,10.88525 c6.24194,0.05481,9.63574-3.80426,10.32422-10.0896C333.84955,908.13605,330.64563,904.15771,324.39917,903.90631z M110.90772,529.86951c-6.08032-0.07782-10.13525,3.77875-10.5036,9.80011c-0.40015,6.54218,3.53143,10.87878,10.00134,11.20703 c6.52991,0.33124,10.1889-3.79242,11.17694-10.33911C120.891,534.17249,117.45954,529.95337,110.90772,529.86951z M484.31726,956.32727c-6.38129,0.73212-10.52545,4.20087-10.53693,10.74561c-0.01074,6.07153,3.84985,10.07416,9.85883,10.36578 c6.50409,0.31543,10.79108-3.60492,11.04034-10.09033C494.93048,960.82196,490.81714,957.21613,484.31726,956.32727z M696.83295,124.23535c6.50916,0.32483,10.16705-3.75287,11.15875-10.54767c-0.79584-6.00952-4.07025-10.32007-10.65698-10.3764 c-6.06635-0.05182-10.09637,3.75122-10.46008,9.76349C686.4801,119.59698,690.37231,123.91302,696.83295,124.23535z M111.52973,582.96979c-6.5459-0.32141-10.71741,3.47858-10.90613,10.08435c-0.17511,6.12903,3.5368,10.1311,9.61993,10.44781 c6.5639,0.34167,10.25464-3.53314,11.06207-10.0863C120.82612,587.31348,117.63154,583.26947,111.52973,582.96979z M163.64954,743.57874c-6.21692,0.03204-9.99066,3.68774-10.04309,9.90631c-0.05658,6.70508,3.91772,10.50543,10.57599,10.284 c6.2381-0.20782,9.33899-4.19794,9.73279-10.284C173.22839,747.25183,169.88672,743.54657,163.64954,743.57874z M645.01776,956.89685c-6.65649-0.23779-10.62396,3.56989-10.58301,10.27661c0.03821,6.24573,3.88428,9.49054,10.06903,10.05011 c6.12885-0.51868,9.96136-3.72369,10.10504-9.97284C654.7514,961.04553,651.22736,957.11865,645.01776,956.89685z M804.25818,904.50635c-5.62372,0.78894-9.06921,3.8858-8.93005,9.80884c0.13788,5.88068,3.54761,9.30688,9.42047,9.27289 c6.37372-0.03674,9.80139-3.8078,9.48767-10.11047C813.94232,907.57208,810.15283,904.7832,804.25818,904.50635z M910.24475,796.75397c-5.87683,0.09039-9.36908,3.34338-9.60382,9.22644c-0.25104,6.2901,3.0343,10.11694,9.42609,10.31152 c6.35992,0.19366,9.67102-3.38306,10.24371-10.09943C919.71216,800.47198,916.73334,796.65417,910.24475,796.75397z M110.46546,638.34576c-5.91925,0.1712-9.21393,3.67102-9.20953,9.58661c0.00488,6.46899,3.78607,9.51044,10.04449,9.82471 c5.82062-0.67914,9.26697-3.776,9.21735-9.73553C120.4643,641.60156,116.82325,638.16174,110.46546,638.34576z M218.16718,229.26654 c5.85388-0.33319,9.55487-3.18103,9.81976-9.14343c0.28094-6.32642-3.01855-10.16687-9.4552-10.25702 c-6.39471-0.08972-9.88623,3.54236-9.79266,9.92688C208.8266,225.7594,212.3797,228.74805,218.16718,229.26654z M270.77911,176.12378c6.36353,0.17188,9.9671-3.41254,9.86609-9.79669c-0.09436-5.96332-3.76874-8.86353-9.57343-9.34662 c-5.77991,0.57147-9.33783,3.54279-9.40131,9.50555C261.6076,172.38721,264.87915,175.96423,270.77911,176.12378z M697.00293,957.52429c-5.87286,0.11707-9.17224,3.65881-9.15558,9.53522c0.01697,5.9386,3.56018,8.91772,9.28851,9.55444 c5.78973-0.45367,9.49225-3.32251,9.62921-9.24951C706.91162,961.02295,703.3465,957.39789,697.00293,957.52429z M111.21101,442.672 c6.34045-0.1604,9.36597-4.01495,9.67731-10.18738c-0.65021-6.25446-4.04736-9.76917-10.32465-9.57727 c-6.30499,0.19275-9.71942,3.95337-9.54474,10.20654C101.19526,439.42633,104.96363,442.83014,111.21101,442.672z M378.94946,123.79822c6.24762-0.651,9.75861-4.05157,9.56689-10.33545c-0.19257-6.31165-3.94904-9.72961-10.19562-9.55475 c-6.30591,0.17645-9.70612,3.94873-9.54816,10.2027C368.93286,120.45776,372.78333,123.48651,378.94946,123.79822z M857.43945,851.47021c-5.89117,0.04572-9.3985,3.35718-9.62958,9.25592c-0.24725,6.30762,3.05811,10.14941,9.46625,10.33966 c6.37604,0.18951,9.69971-3.40381,10.23395-9.7204C867.06079,855.06555,863.84448,851.42029,857.43945,851.47021z M431.05981,957.20746c-5.87781,0.2016-9.25977,3.57349-9.36975,9.45801c-0.11829,6.32886,3.29785,10.00885,9.66992,10.07452 c6.39618,0.06592,9.5556-3.64569,9.995-10.26691C440.66956,960.6355,437.48352,956.98706,431.05981,957.20746z M964.78241,690.71552 c-6.29755,0.68781-9.87585,4.12842-9.68127,10.44043c0.19556,6.33472,4.01581,9.83063,10.2948,9.6488 c6.32635-0.18292,9.80792-4.0141,9.64227-10.30225C974.87054,694.13544,970.96765,691.05493,964.78241,690.71552z M378.36157,957.47876c-4.87225,0.84863-8.69147,3.47498-8.91846,8.95746c-0.24457,5.90808,3.23657,9.60126,9.12604,9.75195 c5.46198,0.13971,8.96564-3.28937,9.26862-8.66577C388.17419,961.55365,384.45044,958.46252,378.36157,957.47876z M1017.58301,496.71948c5.88501,0.19263,9.49609-3.45911,9.48535-9.37036c-0.00989-5.48865-3.62305-8.35107-8.85803-9.23328 c-5.45349,0.4743-9.14563,3.27136-9.52911,8.66345C1008.26202,492.67535,1011.71716,496.5274,1017.58301,496.71948z M165.57635,283.59241c5.86859-0.00458,9.32263-3.48999,9.35004-9.36749c0.02765-5.94025-3.62909-8.88818-9.36353-9.5553 c-5.73529,0.67426-9.38568,3.63043-9.3504,9.56909C156.24744,280.11658,159.70728,283.59692,165.57635,283.59241z M1017.79669,531.12646c-5.38831,0.01709-8.83203,3.33905-9.15106,8.63641c-0.35065,5.82312,3.06116,9.5556,8.83398,9.8493 c5.87317,0.29889,8.91919-3.41864,9.93054-9.60388C1026.42114,535.04285,1023.73315,531.10779,1017.79669,531.12646z M964.88208,336.5141c5.99591,0.14307,9.06268-3.41858,9.78577-9.22223c-0.50006-5.84741-3.39972-9.55176-9.40839-9.63617 c-5.93811-0.08356-9.48999,3.28394-9.60199,9.24017C955.54596,332.83807,958.93097,336.37219,964.88208,336.5141z M751.53888,123.33997c5.83881-0.42444,9.59979-3.25708,9.81067-9.17572c0.20898-5.86493-3.12042-9.49829-8.97693-9.73468 c-5.85645-0.23627-9.46295,3.11652-9.7309,8.97992C742.37079,119.33606,745.91901,122.43262,751.53888,123.33997z M218.32666,851.84186c-5.40771,0.78137-9.04309,3.62219-9.1579,9.08789c-0.12396,5.90472,3.41852,9.54913,9.32135,9.55133 c5.43439,0.00195,8.90491-3.44617,9.07526-8.86194C227.75323,855.64807,223.99811,852.6239,218.32666,851.84186z M111.29353,389.47906c5.59698-0.92047,9.18054-3.98871,8.92627-9.88586c-0.25116-5.8252-3.85187-9.21039-9.67743-8.99121 c-5.81818,0.21887-9.17896,3.84656-8.98779,9.68103C101.74732,386.16486,105.50745,389.00671,111.29353,389.47906z M110.98804,691.75104c-5.87329,0.02283-9.48944,3.7851-9.16687,9.67645c0.29462,5.38068,4.0376,8.20776,9.43994,8.70087 c5.25476-1.00873,8.83362-3.93787,8.71521-9.4314C119.85944,695.27551,116.39295,691.73016,110.98804,691.75104z M1017.63763,443.55469c5.37897,0.15869,8.9278-3.30182,9.10101-8.64734c0.17542-5.41345-3.38562-8.37567-8.69727-9.31647 c-5.24957,0.64703-8.90778,3.46875-9.04633,8.85693C1008.85663,439.83386,1012.29578,443.39709,1017.63763,443.55469z M323.8913,123.00903c5.26447-0.71643,8.88043-3.54468,9.07904-8.91248c0.19958-5.39587-3.21021-9.02545-8.46948-9.3009 c-5.80267-0.30402-9.52551,3.34021-9.53247,9.1424C314.96185,119.30981,318.63184,122.18341,323.8913,123.00903z M857.70264,175.82922c4.86517-0.82446,8.67902-3.49609,8.80615-8.94836c0.12628-5.41376-3.3194-8.99377-8.67859-9.16022 c-5.40125-0.16779-8.9704,3.31183-9.15277,8.67871C848.49255,171.83966,852.08044,174.80743,857.70264,175.82922z M912.04321,228.36853c5.37891,0.15863,8.9278-3.30182,9.10101-8.64728c0.17535-5.41345-3.38568-8.37573-8.69727-9.31647 c-5.24957,0.64703-8.90778,3.46875-9.04633,8.85693C903.26215,224.64777,906.70135,228.211,912.04321,228.36853z M270.95312,905.20532c-5.36786,0.1651-8.84485,3.72955-8.69769,9.13385c0.14618,5.36829,3.7193,8.83875,9.12128,8.71155 c5.40558-0.12708,8.24084-3.80743,8.91296-9.09393C279.33795,908.64154,276.39307,905.03802,270.95312,905.20532z M163.4942,797.3996c-5.31653,0.96729-8.90778,3.93176-8.7229,9.37378c0.18231,5.3667,3.74689,8.84528,9.15131,8.67902 c5.36365-0.16522,8.81952-3.74884,8.67517-9.1571C172.45343,800.8855,168.77094,798.05511,163.4942,797.3996z M484.43048,68.18073 c5.31567-0.96704,8.90552-3.9303,8.7207-9.37372c-0.18219-5.36926-3.75146-8.84564-9.15137-8.67932 c-5.35962,0.16498-8.82117,3.74805-8.67535,9.1582C475.47021,64.69525,479.15155,67.52625,484.43048,68.18073z M1018.3595,584.16418 c-5.87958-0.26483-9.59784,3.38806-9.56573,9.27905c0.02966,5.44971,3.72565,8.31616,9.05194,9.09937 c5.32153-0.74957,8.95312-3.58752,9.11206-9.04688C1027.11682,588.02899,1023.70679,584.40515,1018.3595,584.16418z M965.63257,744.58765c-5.4635-0.37848-9.1676,2.97839-9.6062,8.29968c-0.48578,5.89551,3.09528,9.68481,8.94745,9.87836 c5.46912,0.1806,8.40393-3.47485,9.38824-8.74792C973.84094,748.62158,971.02173,744.96112,965.63257,744.58765z M539.25525,68.12726c5.42999-0.11237,8.26959-3.83337,8.96234-9.18079c-0.83362-5.31458-3.70221-8.92841-9.16443-9.00012 c-5.44806-0.07153-9.04218,3.35394-9.1969,8.73364C529.68683,64.56824,533.37067,68.24908,539.25525,68.12726z M592.36475,68.08887 c5.33496-0.32849,8.15448-4.07263,8.60785-9.45947c-1.03967-5.23608-3.97388-8.80389-9.43677-8.65167 c-5.38495,0.15002-8.91125,3.63049-8.85535,9.01807C582.74121,64.841,586.50952,68.44934,592.36475,68.08887z M1017.70673,639.28485 c-5.17004,0.70728-8.38922,3.54395-8.38745,8.56696c0.00195,5.48553,3.42078,8.88892,8.88379,8.66382 c5.44196-0.22424,8.61896-3.84271,8.17804-9.3349C1025.97827,642.16632,1022.52618,639.62817,1017.70673,639.28485z M431.88788,67.39197c5.09235-0.25122,7.68622-3.49664,7.98889-8.55682c-0.53168-5.08826-3.33075-8.18237-8.42047-8.13019 c-5.59033,0.05731-8.66821,3.50885-8.32819,9.01715C423.44208,64.80933,426.8349,67.64136,431.88788,67.39197z M644.20605,67.73053 c5.41858,0.21716,8.40045-3.26013,9.1637-8.6394c-0.67255-5.30884-3.56738-8.76788-9.00397-8.7475 c-4.97284,0.01862-8.27258,3.25507-8.53156,8.16022C635.54858,63.91534,638.83289,67.5152,644.20605,67.73053z M752.26611,958.34259 c-5.50812-0.08936-8.94067,3.33075-8.89923,8.83514c0.03796,5.04089,3.33405,8.34161,8.35962,8.44244 c5.5307,0.11084,8.45465-3.38971,9.06287-8.73926C760.08838,961.77728,757.30865,958.42444,752.26611,958.34259z M110.10957,335.45679c5.53778,0.41345,9.0423-2.70941,9.172-8.28833c0.11835-5.08923-2.99408-7.97357-8.43451-8.62921 c-4.6709,0.3653-8.06158,2.88129-8.36243,7.99701C102.18732,331.59198,105.00636,335.07593,110.10957,335.45679z M910.13055,853.20007c-4.771,0.0885-7.62799,2.85364-7.80023,7.63037c-0.18762,5.20056,2.56946,8.38208,7.84808,8.50671 c5.25311,0.12396,7.98572-2.87805,8.36884-8.06573C918.1427,856.03363,915.3761,853.10284,910.13055,853.20007z M591.81708,1013.88977c-5.26715-0.05359-8.06616,2.9671-7.92975,8.19684c0.12561,4.8161,3.01935,7.21478,8.2276,7.61383 c4.11969-0.39526,7.22662-2.55664,7.4361-7.41626C599.77472,1017.09167,597.11096,1013.94354,591.81708,1013.88977z M218.37659,174.48291c4.79291,0.05719,7.35944-2.66962,7.91156-7.29071c-0.06146-4.79517-2.20428-7.94611-7.00531-8.36365 c-5.11823-0.44501-8.47961,2.03424-8.73413,7.3562C210.29956,171.39563,213.09784,174.42017,218.37659,174.48291z M804.32104,121.85242c5.20984,0.21582,8.11627-2.58942,8.63062-7.90063c-0.27667-5.11066-2.86847-8.24097-8.15198-8.23151 c-5.25665,0.00934-8.13611,3.05774-8.06714,8.2934C796.79535,118.79022,799.55035,121.65472,804.32104,121.85242z M536.62885,1013.73456c-4.21326,0.46387-7.27856,2.66553-7.43036,7.52979c-0.16266,5.21393,2.56464,8.25055,7.84564,8.29681 c4.76349,0.04187,7.61804-2.59534,7.82159-7.38562C545.08899,1016.92242,542.22113,1014.1825,536.62885,1013.73456z M57.5293,495.4212c4.77466-0.06415,7.90436-2.20477,8.32178-6.97839c0.44556-5.09583-2.02795-8.4422-7.31006-8.69757 c-5.17621-0.25031-8.18188,2.54279-8.24658,7.79468C50.2356,492.31189,52.95588,494.86078,57.5293,495.4212z M1017.67468,387.78009 c5.29053,0.07428,7.8595-2.9408,8.15637-8.51135c-0.58423-4.22583-2.91504-7.1673-7.77002-7.18158 c-5.2547-0.01544-8.12042,2.87555-8.02325,8.12091C1010.1264,384.99561,1012.89539,387.71289,1017.67468,387.78009z M857.70197,906.18079c-5.09857,0.30994-8.06335,2.93823-7.94641,8.21851c0.1059,4.7865,2.86182,7.52069,7.6413,7.56952 c5.25269,0.05371,8.10962-2.86536,8.02643-8.11206C865.34686,909.04126,862.50128,906.59717,857.70197,906.18079z M58.09834,532.54272c-4.76398-0.05176-7.62518,2.57947-7.83838,7.3681c-0.23364,5.24982,2.62506,8.00159,7.74023,8.41895 c4.79382-0.30695,7.73712-2.6618,7.92041-7.474C66.11903,535.64581,63.38056,532.60004,58.09834,532.54272z M111.44971,745.84113 c-5.18707-0.22418-8.33191,2.44269-8.38562,7.742c-0.05347,5.27264,2.96417,8.07446,8.18842,7.93793 c4.81116-0.12567,7.20691-3.02264,7.60577-8.23553C118.46345,749.16089,116.30427,746.05078,111.44971,745.84113z M697.58319,66.88702c4.81036-0.07629,7.2522-2.92468,7.66815-7.72931c-0.30963-5.10358-2.93475-8.07166-8.20966-7.95477 c-4.78156,0.10602-7.51276,2.86469-7.56165,7.64917C689.42615,64.11029,692.34216,66.97015,697.58319,66.88702z M324.7926,959.15851 c-5.12592-0.39673-8.4491,2.12842-8.65137,7.45251c-0.19861,5.22437,2.64453,8.19934,7.91504,8.21246 c4.7998,0.01208,7.32483-2.75342,7.82849-7.39355C331.78546,962.64111,329.58704,959.52954,324.7926,959.15851z M965.23151,282.43073c4.70184-0.3877,7.92926-2.86285,7.90063-8.19183c-0.0282-5.26324-3.0592-8.14471-8.28918-8.07587 c-4.77155,0.06287-7.63281,2.82092-7.83038,7.59644C956.79663,278.97479,959.59918,281.88416,965.23151,282.43073z M431.47046,1014.3689c-4.76111,0.08838-7.58191,3.02051-7.36316,7.78693c0.19586,4.26898,2.99512,6.96014,7.30701,6.91669 c4.80322-0.04822,7.15466-3.09607,7.53149-7.74329C438.14093,1017.10651,435.81586,1014.28815,431.47046,1014.3689z M111.01685,281.4823c4.341,0.01636,6.63757-2.90729,7.28613-7.1521c-0.50757-4.26575-2.74872-7.14734-7.08051-7.36414 c-4.36487-0.21851-7.27576,2.46393-7.56512,6.69916C103.3307,278.44794,106.23579,281.46436,111.01685,281.4823z M1018.08307,334.23981c4.35931-0.13098,6.60724-3.07666,7.10419-7.34332c-0.78491-4.26263-3.13678-7.13434-7.53363-6.96625 c-4.32849,0.16547-7.07739,3.00879-6.92889,7.36859C1010.87213,331.62512,1013.72461,334.37073,1018.08307,334.23981z M752.23346,66.151c4.28339-0.16492,7.01221-3.01648,6.86456-7.34363c-0.14752-4.32269-3.08197-6.55792-7.64777-7.08136 c-3.75165,0.96869-6.77448,3.14453-6.56189,7.55823C745.09509,63.57422,747.90991,66.31744,752.23346,66.151z M484.88196,1014.08099 c-5.15021-0.32489-8.24756,2.41791-8.29346,7.68671c-0.04181,4.78894,2.79199,7.24084,7.97296,7.78369 c4.04053-0.46948,7.14349-2.55896,7.33905-7.41467C492.09106,1017.40552,489.61603,1014.37976,484.88196,1014.08099z M805.00629,959.62976c-4.81531-0.0907-7.20874,2.93427-7.79108,8.1051c0.94763,3.50665,2.94293,6.60406,7.36237,6.6051 c4.77423,0.00116,7.63751-2.84235,7.55255-7.6087C812.05353,962.43799,809.29816,959.71063,805.00629,959.62976z M965.02502,798.89282c-4.84406,0.10968-7.59528,2.85065-7.56915,7.68829c0.02612,4.84454,2.82739,7.58807,7.66217,7.58032 c4.87848-0.00769,7.29291-2.91418,7.75342-8.38141C972.11902,801.96844,970.03003,798.77954,965.02502,798.89282z M378.37921,66.54407c4.86646,0.19208,7.35529-2.7287,7.90955-7.4679c-0.51233-4.73901-2.96625-7.62006-7.84491-7.5423 c-4.37292,0.06964-7.06824,2.66968-7.29291,7.01172C370.90167,63.36139,373.55182,66.35358,378.37921,66.54407z M165.68445,227.34534c4.76227-0.41504,7.58234-2.87964,7.63013-7.73914c0.0473-4.81549-2.57788-7.71472-7.39856-7.85034 c-5.28723-0.1488-8.21484,2.79596-8.07794,8.08942C157.96381,224.70306,160.9408,227.0589,165.68445,227.34534z M58.73316,585.59637 c-5.15015-0.32513-8.2475,2.41779-8.29364,7.68658c-0.04193,4.789,2.79218,7.24054,7.97235,7.78375 c4.04095-0.46948,7.1441-2.55853,7.33972-7.41449C65.94221,588.92084,63.46711,585.8952,58.73316,585.59637z M1018.37122,693.16791 c-4.71393-0.27527-7.78564,2.18951-8.13275,6.92627c-0.37634,5.13824,2.31073,8.29266,7.58459,8.39374 c4.78058,0.0918,7.2641-2.71387,7.81-7.34741C1025.40576,696.42706,1023.15186,693.4469,1018.37122,693.16791z M58.49238,440.43677 c4.66058-0.75,7.41943-3.38263,7.09235-8.22858c-0.29242-4.33252-3.00336-6.92865-7.37823-6.92657 c-4.83447,0.00232-7.66309,2.78955-7.60846,7.62628C50.65321,437.78662,53.6919,440.12451,58.49238,440.43677z M644.31,1014.19366 c-4.37042,0.14404-7.06799,2.68939-7.28754,7.03406c-0.24353,4.81573,2.40717,7.80573,7.23572,7.99115 c4.8656,0.18677,7.35461-2.73193,7.98175-8.15698C651.3761,1017.28064,649.33081,1014.02826,644.31,1014.19366z M218.58008,906.81409c-4.73022-0.04315-7.59869,2.83405-7.51447,7.56104c0.07581,4.25592,2.83405,6.98767,7.08923,7.0672 c4.7749,0.08929,7.15875-2.93591,7.69153-7.48291C225.14429,909.70758,222.87506,906.85315,218.58008,906.81409z M271.23926,121.28564c4.87494-0.02814,7.2229-3.06091,7.5661-7.84589c-0.73364-4.67566-3.32837-7.4632-8.18286-7.15833 c-4.33545,0.27222-6.93634,2.96771-6.95856,7.34528C263.63934,118.46527,266.40631,121.3136,271.23926,121.28564z M163.88934,854.02911c-4.78412-0.0553-7.69183,2.95135-7.44122,7.73718c0.22455,4.28741,3.19379,6.5423,7.49939,6.92975 c4.2113-0.74603,7.02905-3.08142,6.99365-7.44733C170.90588,856.91895,168.18884,854.0788,163.88934,854.02911z M697.12549,1014.36719c-3.65961,0.73975-6.81647,2.69165-6.9248,7.11108c-0.1062,4.33911,2.59174,7.17993,6.8714,7.34753 c4.32343,0.16907,7.16071-2.58069,7.3421-6.86523C704.59875,1017.6048,701.75031,1015.24011,697.12549,1014.36719z M58.18891,640.62531c-4.77026,0.03442-7.59839,2.95007-7.43481,7.71454c0.14716,4.28387,2.93579,6.98059,7.23657,6.98798 c4.81079,0.00806,7.17352-3.0365,7.60779-7.66388C64.8371,643.422,62.5293,640.59387,58.18891,640.62531z M912.48505,173.74396 c4.28326-0.14709,7.02136-2.99231,6.89014-7.31891c-0.1311-4.32404-3.05951-6.56683-7.62085-7.1073 c-3.76123,0.94934-6.78046,3.12201-6.58826,7.5329C905.35321,171.14642,908.16608,173.8924,912.48505,173.74396z M1018.23901,746.81293c-3.79852,0.23523-6.56207,2.16595-7.03931,5.98987c-0.54486,4.36646,2.02979,7.20807,6.23895,7.60602 c3.84753,0.36407,6.60431-2.03802,7.09113-5.84894C1025.08875,750.18384,1022.4455,747.75153,1018.23901,746.81293z M271.13855,960.24323c-3.86761-0.07233-6.49847,2.49579-6.69885,6.30475c-0.2276,4.32593,2.49768,6.70117,6.65637,7.29626 c3.95923-0.45416,6.59985-2.61505,6.79034-6.42975C278.10168,963.10345,275.43665,960.32379,271.13855,960.24323z M57.52918,386.83276c4.2926,0.3194,7.19983-2.34283,7.44324-6.56519c0.24811-4.30389-2.59064-6.66809-7.10852-7.43909 c-3.7467,0.77344-6.71906,2.85529-6.68481,7.23492C51.2093,383.93408,53.77491,386.55341,57.52918,386.83276z M110.92335,799.83789 c-3.49982,0.28583-6.23108,2.19165-6.58502,6.07959c-0.35193,3.86603,1.8136,6.67676,5.71069,7.11249 c4.37146,0.48865,7.17596-1.9989,7.38025-6.33551C117.61304,802.79242,115.1413,800.52338,110.92335,799.83789z M324.12811,65.52081 c4.01044-0.09955,6.0968-2.65222,6.39142-6.63885c-0.48883-3.99158-2.71704-6.41901-6.72614-6.3103 c-3.99939,0.10846-6.40546,2.63116-6.2995,6.64081C317.59973,63.21777,320.12622,65.62012,324.12811,65.52081z M1071.22815,546.93781c3.85828-0.33936,5.87842-2.97961,6.09399-6.74841c-0.62244-4.01495-2.85706-6.50562-6.76453-6.35602 c-4.34863,0.16656-6.84094,2.97223-6.38989,7.33521C1064.56982,545.05621,1067.3562,547.27838,1071.22815,546.93781z M964.88818,226.35699c3.86652-0.32617,6.57422-2.43286,6.89752-6.21155c0.36755-4.29626-2.23572-7.15625-6.51978-7.39197 c-3.88232-0.21356-6.57184,2.31598-6.90637,6.08655C957.97687,223.1524,960.64075,225.62036,964.88818,226.35699z M858.35638,120.58215c3.8316-0.40991,5.89746-3.18378,6.20215-6.99664c-0.70288-3.95392-2.90558-6.63043-6.81396-6.63446 c-4.35437-0.00458-7.18768,2.79871-6.96185,7.1427C851.00543,118.37427,853.96344,121.05206,858.35638,120.58215z M57.3465,694.31744c-3.8728,0.37671-6.12512,3.1449-5.80676,7.03333c0.31677,3.86945,2.93604,5.90314,6.7002,6.14301 c4.01892-0.59186,6.51514-2.81842,6.39404-6.72778C64.49897,696.40735,61.69837,693.89404,57.3465,694.31744z M379.25977,1015.1687 c-3.85925-0.36682-6.66907,1.81213-7.10437,5.71313c-0.48816,4.37598,1.99664,7.18347,6.3288,7.38806 c3.89795,0.18396,6.16473-2.29016,6.81604-6.30658C385.11578,1018.19574,383.11365,1015.53497,379.25977,1015.1687z M1070.59937,494.09625c3.98218-0.35345,6.49585-2.47778,6.53357-6.49683c0.0376-4.01038-2.39893-6.49982-6.39941-6.54285 c-4.00232-0.04309-6.4928,2.39893-6.5365,6.40613C1064.15283,491.47339,1066.60803,493.66974,1070.59937,494.09625z M165.10571,172.49451c3.70142,0.24243,5.90387-1.62262,6.41919-5.77448c-0.14581-3.21454-1.63812-5.72028-5.49396-5.94104 c-3.6936-0.21149-6.06903,1.58191-6.31042,5.39594C159.48639,169.87378,161.3042,172.24567,165.10571,172.49451z M430.79889,11.82135c3.6192,0.37878,5.80774-1.53821,6.3609-5.2074c-0.08978-3.64355-1.79047-5.90546-5.53418-6.0752 c-3.24207-0.14697-5.37201,1.58832-5.7818,4.78137C425.3808,8.92847,427.10724,11.43494,430.79889,11.82135z M484.34692,12.25104 c3.62347-0.00739,5.62799-2.0766,6.0351-6.07684c-0.10046-3.17456-1.69104-5.66632-5.33032-6.01544 c-3.95966-0.37976-6.65857,1.50952-6.8526,5.68115C478.00983,9.90869,480.23077,12.25946,484.34692,12.25104z M1070.52014,642.1637 c-3.74792,0.07788-5.73376,2.23517-5.66455,5.95947c0.07007,3.77124,2.26843,5.58087,5.89905,5.73077 c3.7771-0.29199,5.80225-2.28522,5.71899-6.02136C1076.39001,644.07666,1074.23718,642.08624,1070.52014,642.1637z M1018.37146,280.12671c3.28442-0.38428,5.41614-2.25854,5.30969-6.03851c-0.10571-3.75635-2.24158-5.74652-5.95844-5.66895 c-3.74768,0.07812-5.73395,2.23547-5.66449,5.95984C1012.12878,278.15015,1014.3269,279.96008,1018.37146,280.12671z M857.4444,961.16492c-3.75751,0.08435-5.73627,2.23853-5.66119,5.95898c0.07581,3.75586,2.23407,5.73944,5.95178,5.67084 c3.76617-0.06921,5.57501-2.27191,5.72614-5.91461C863.16119,963.1167,861.18304,961.08105,857.4444,961.16492z M323.73999,1016.26807c-3.21112,0.21118-5.27136,2.22766-5.19836,5.44135c0.0838,3.68341,2.45654,5.82477,6.10004,5.41803 c3.10498-0.34668,4.79956-2.59912,4.85602-6.36908C328.60406,1018.38354,327.10425,1016.04694,323.73999,1016.26807z M539.25702,12.30664c3.65839-0.12054,5.75104-2.33386,5.77582-5.98682c0.02826-4.16278-2.37982-6.16724-6.29047-6.31769 c-3.79797,0.40027-5.91888,2.39795-5.93182,6.06329C532.79596,10.21503,535.15271,12.44183,539.25702,12.30664z M591.82477,12.30969 c3.64941-0.0058,5.86084-2.09955,6.00214-5.75995c0.1593-4.12714-2.12469-6.27673-6.06787-6.54974 c-3.77173,0.2879-6.02417,2.15295-6.14886,5.83569C585.47095,9.948,587.68225,12.31635,591.82477,12.30969z M644.66205,12.0542 c3.79803-0.06982,5.62219-2.2879,5.76971-5.95758c-0.2962-3.80322-2.29437-5.84894-6.06335-5.7655 c-3.79053,0.08392-5.78137,2.25555-5.70605,6.00708C638.73816,10.12701,640.91345,12.12317,644.66205,12.0542z M1070.20117,440.53302c3.69482,0.23438,6.06445-1.58527,6.31299-5.39081c0.24207-3.70514-1.62085-5.91022-5.76807-6.42609 c-3.21118,0.14606-5.7146,1.63977-5.93518,5.49969C1064.59961,437.91302,1066.39099,440.29138,1070.20117,440.53302z M697.81714,11.6098c3.15118-0.237,4.84863-2.45428,5.03906-5.7041c-0.58026-3.125-2.33319-5.1955-5.58466-5.15405 c-3.22247,0.04108-5.33533,2.05249-5.37671,5.25299C691.84705,9.69501,694.1488,11.8858,697.81714,11.6098z M164.19379,908.7674 c-3.60712-0.29852-5.90277,1.90717-5.87878,5.53442c0.021,3.16943,2.20392,4.86462,5.80475,5.40771 c2.43829-0.6803,4.81-2.02826,4.96179-5.297C169.23175,911.17847,167.25195,909.02039,164.19379,908.7674z M910.51483,908.01019 c-4.14203-0.01587-6.37036,2.34833-6.23389,6.45605c0.12152,3.65997,2.33191,5.75714,5.98254,5.77972 c4.1571,0.0257,6.16412-2.37854,6.30743-6.30005C916.17987,910.13733,914.16821,908.02441,910.51483,908.01019z M1070.77393,587.11694c-3.64404-0.10724-5.95996,1.90393-6.20947,5.54767c-0.27893,4.0705,1.85889,6.39368,6.02234,6.76245 c3.58875-0.17108,5.9425-1.95087,6.17993-5.61798C1077.02966,589.74475,1074.94238,587.2395,1070.77393,587.11694z M752.45959,1015.86401c-3.69562-0.22882-6.06909,1.5863-6.31195,5.39203c-0.23578,3.69415,1.58459,6.07184,5.38617,6.32013 c3.69977,0.24121,5.90613-1.61963,6.3703-5.38989C757.90778,1018.50049,756.28168,1016.10077,752.45959,1015.86401z M217.90521,119.64148c3.69995,0.24127,5.90588-1.61987,6.42194-5.8125c-0.14551-3.1803-1.63861-5.68146-5.4964-5.90308 c-3.69739-0.2124-6.06927,1.59039-6.31213,5.39594C212.28284,117.01617,214.10333,119.39355,217.90521,119.64148z M804.7417,64.6991 c3.70917-0.04108,5.78595-2.1377,5.68591-5.83344c-0.10114-3.73401-2.40741-5.45959-6.06042-5.54358 c-3.65533,0.55524-5.53351,2.72784-5.20465,6.36676C799.4516,62.88873,801.48938,64.73511,804.7417,64.6991z M536.3833,1068.97852 c-2.47699,0.75317-4.81226,2.20288-4.79364,5.53931c0.01801,3.23926,1.96307,5.37646,5.15875,5.47778 c3.68915,0.11719,5.89508-2.15161,5.70239-5.82727C542.28357,1070.97827,540.06677,1069.29724,536.3833,1068.97852z M111.0669,225.13208c3.7301-0.1012,5.4538-2.40991,5.5376-6.06677c-0.55463-3.65936-2.72516-5.53918-6.36023-5.21008 c-3.19647,0.28937-5.04095,2.32947-5.00482,5.58521C105.28059,223.15338,107.37501,225.23236,111.0669,225.13208z M1070.21045,385.35187c3.66724,0.24701,5.94763-1.96014,5.875-5.65356c-0.06323-3.2218-2.25635-4.9126-5.91992-5.37787 c-2.48145,0.68024-4.84375,2.05884-4.94897,5.39178C1065.11328,382.98761,1067.07007,385.14032,1070.21045,385.35187z M1017.85583,800.97937c-3.16022,0.41925-5.27832,2.08978-5.42596,5.33124c-0.14893,3.27008,1.84326,5.42682,4.98346,5.63837 c3.66718,0.24689,5.94775-1.96021,5.87524-5.65381C1023.2251,803.07306,1021.03174,801.38263,1017.85583,800.97937z M59.02863,332.95074c3.15649-0.54083,5.12488-2.61108,4.8681-6.31903c-0.26129-3.77325-2.60022-5.58826-6.26141-5.3548 c-3.76672,0.24023-5.57776,2.59576-5.34943,6.2641C52.52143,331.32544,54.88886,332.96008,59.02863,332.95074z M58.55793,748.23358 c-3.27197-0.28882-5.50562,1.66119-5.86737,4.75098c-0.42712,3.64697,1.71344,6.01556,5.39172,6.12573 c3.23987,0.09723,4.98572-2.05328,5.64093-5.67371C63.20942,750.87219,61.81593,748.52112,58.55793,748.23358z M964.612,855.41431 c-3.81128,0.26379-5.62152,2.62457-5.38995,6.31763c0.23865,3.80756,2.61584,5.62659,6.30682,5.39825 c3.81244-0.23596,5.45306-2.63184,5.44934-6.8938C970.41766,857.15625,968.35535,855.15515,964.612,855.41431z M217.7597,961.66284 c-2.52606,0.98724-4.97754,2.54175-4.51392,5.83136c0.42761,3.03314,2.61438,5.11438,5.85785,4.59387 c2.58649-0.41498,4.54694-2.32874,4.40625-5.16614C223.35095,963.71692,221.23151,962.06366,217.7597,961.66284z M110.56135,855.89929c-2.43176,0.80457-4.85913,2.12946-4.83319,5.46698c0.02179,2.8111,1.93982,4.72864,4.56488,5.03674 c3.21503,0.37732,5.42035-1.67157,5.7066-4.76392C116.29835,858.41284,114.09345,856.66913,110.56135,855.89929z M965.70386,171.55768c2.6142-0.31995,4.21454-2.28851,4.41626-5.11121c-0.66541-3.07959-2.49445-5.14191-5.68146-4.7334 c-2.58936,0.33197-4.54614,2.27954-4.30811,5.10474C960.39594,169.96826,962.52521,171.94672,965.70386,171.55768z M58.31709,279.0434c2.87561-0.56641,4.69531-2.21448,4.48187-5.10547c-0.20892-2.82928-2.1051-4.63245-5.00281-4.41595 c-2.8313,0.21161-4.61847,2.10577-4.4126,5.00616C53.58625,277.38245,55.51069,278.86969,58.31709,279.0434z M5.52375,535.08636 c-3.2265-0.16034-5.34082,1.89984-5.51331,5.06445c-0.17615,3.23096,1.89093,5.33246,5.05212,5.52087 c3.25922,0.19421,4.97418-1.98267,5.65833-5.07214C10.38197,537.4328,8.71387,535.24493,5.52375,535.08636z M911.93445,118.72485 c2.80035,0.34924,4.78125-1.54663,5.21851-4.15509c0.54272-3.23834-1.53058-5.02917-4.86469-5.92096 c-2.36536,0.35944-4.49091,1.66071-4.90454,4.35358C906.8855,116.2467,908.85828,118.34125,911.93445,118.72485z M1070.68579,695.67853c-2.83179-0.11511-4.75134,1.86194-5.13306,4.44849c-0.47546,3.22217,1.58496,5.45496,4.64087,5.8205 c3.22095,0.38538,4.98804-1.83087,5.75378-4.92163C1075.54614,697.9342,1073.8927,695.80896,1070.68579,695.67853z M5.292,437.50195 c2.88269,0.00354,4.43805-1.86346,4.83246-5.00836c-0.48157-2.46887-1.92114-4.44458-4.83344-4.42291 c-2.87134,0.0213-4.71112,1.84662-4.7088,4.71881C0.58454,435.65778,2.41663,437.49829,5.292,437.50195z M377.84277,11.19757 c3.31964,0.57819,5.11487-1.60901,6.07672-4.98627c-0.40173-2.41534-1.737-4.60162-4.47333-5.0332 c-3.32263-0.52411-5.45093,1.53625-5.85547,4.66809C373.2193,8.72064,375.20209,10.73755,377.84277,11.19757z M6.16505,492.59924 c2.58044-0.51489,4.51239-2.42566,4.26849-5.27216c-0.27161-3.16974-2.39777-4.81836-5.83478-5.09094 c-2.56616,1.04132-5.00464,2.6756-4.42261,5.94708C0.70283,491.14331,2.87867,493.25494,6.16505,492.59924z M5.45637,588.08276 c-2.83417-0.21155-4.75439,1.72766-5.2381,4.31409c-0.61206,3.27234,1.47174,5.47913,4.4613,5.94818 c3.21393,0.50403,5.01721-1.72345,5.88226-4.75476C10.28016,590.45294,8.63264,588.31989,5.45637,588.08276z M804.79395,1017.00446 c-2.86597,0.00726-4.70844,1.83783-4.70648,4.71552c0.00195,2.87402,1.83441,4.70654,4.70728,4.71191 c2.88434,0.00562,4.43585-1.8667,4.79736-4.70782C809.23328,1018.86914,807.67346,1016.99719,804.79395,1017.00446z M431.75464,1069.86499c-2.89313-0.22437-4.79584,1.56152-5.01733,4.39673c-0.22662,2.90015,1.5896,4.54419,4.49707,5.1217 c2.77185-0.16052,4.70471-1.64539,4.91675-4.49561C436.36639,1071.9939,434.58813,1070.08459,431.75464,1069.86499z M483.92615,1069.44824c-3.0979,0.25574-5.14685,2.44531-4.80615,5.66797c0.27924,2.64148,2.18146,4.59814,4.97949,4.604 c3.23944,0.00684,4.89453-2.13196,5.41968-5.21436C488.87134,1071.40771,487.15491,1069.18213,483.92615,1069.44824z M272.0368,64.11456c2.58038-0.51483,4.51215-2.42566,4.26831-5.27209c-0.27161-3.1698-2.39758-4.81836-5.54077-5.06763 c-3.01721,0.89038-5.2486,2.71625-4.70947,5.92365C266.55249,62.65857,268.75037,64.77026,272.0368,64.11456z M591.49768,1069.28174 c-3.1601,0.18372-5.23053,2.28137-5.05841,5.5144c0.16858,3.16528,2.27472,5.22253,5.50464,5.0686 c3.19757-0.15271,4.85535-2.34375,5.20892-5.49329C596.47125,1071.27185,594.7561,1069.09229,591.49768,1069.28174z M644.51923,1069.85938c-2.86987,0.00537-4.70679,1.83618-4.70819,4.71191c-0.0014,2.87622,1.83484,4.70654,4.70471,4.71509 c2.88495,0.00854,4.43567-1.86768,4.80139-4.71265C648.95544,1071.72852,647.40198,1069.854,644.51923,1069.85938z" fill="#ffffff"/></g></svg>