<?xml version="1.0" encoding="UTF-8" standalone="no"?><svg xmlns="http://www.w3.org/2000/svg" xmlns:xlink="http://www.w3.org/1999/xlink" fill="#000000" height="409.5" preserveAspectRatio="xMidYMid meet" version="1" viewBox="71.9 47.4 366.4 409.5" width="366.4" zoomAndPan="magnify"><g id="change1_1"><path d="M 245.039062 244.847656 C 243.210938 244.847656 241.441406 244.171875 240.078125 242.949219 L 216.019531 221.375 C 214.058594 219.605469 211.226562 219.175781 208.8125 220.277344 C 206.394531 221.382812 204.875 223.8125 204.929688 226.460938 L 205.96875 278.304688 C 206.046875 281.921875 208.992188 284.816406 212.613281 284.816406 L 238.039062 284.816406 C 241.871094 284.816406 245.054688 287.6875 245.441406 291.492188 L 253.738281 371.363281 C 253.949219 373.339844 253.363281 375.273438 252.117188 376.8125 C 250.855469 378.355469 249.078125 379.324219 246.3125 379.570312 C 242.496094 379.570312 239.324219 376.699219 238.925781 372.894531 L 231.9375 305.65625 C 231.585938 302.269531 228.730469 299.695312 225.328125 299.695312 L 171.21875 299.695312 C 167.542969 299.695312 164.570312 302.671875 164.570312 306.347656 L 164.570312 413.917969 C 164.570312 418.019531 161.230469 421.359375 157.128906 421.359375 C 153.023438 421.359375 149.6875 418.019531 149.6875 413.917969 L 149.558594 283.925781 C 149.6875 283.496094 149.894531 282.460938 149.933594 282.011719 C 149.949219 281.828125 149.882812 280.785156 149.882812 280.597656 L 148.949219 234.601562 C 148.894531 231.796875 147.078125 229.324219 144.414062 228.433594 C 143.714844 228.199219 143 228.089844 142.300781 228.089844 C 140.300781 228.089844 138.363281 228.992188 137.078125 230.628906 L 123.40625 248.007812 C 122.976562 248.554688 122.625 249.164062 122.394531 249.8125 L 102.316406 304.195312 C 100.929688 307.949219 96.410156 309.949219 92.761719 308.605469 C 88.902344 307.175781 86.929688 302.886719 88.34375 299.039062 L 109.171875 242.625 C 109.472656 241.847656 109.847656 241.152344 110.316406 240.554688 L 142.714844 199.390625 C 144.144531 197.585938 146.273438 196.554688 148.570312 196.554688 L 207.769531 196.554688 C 209.617188 196.554688 211.382812 197.230469 212.746094 198.449219 L 245.988281 228.265625 C 247.207031 229.363281 248.792969 229.964844 250.429688 229.964844 L 290.242188 229.964844 C 294.347656 229.964844 297.683594 233.304688 297.683594 237.40625 C 297.683594 241.511719 294.347656 244.847656 290.242188 244.847656 Z M 272.257812 359.441406 C 270.132812 359.507812 267.992188 359.511719 265.882812 359.636719 L 258.660156 290.121094 C 257.570312 279.519531 248.703125 271.519531 238.039062 271.519531 L 219.132812 271.519531 L 218.523438 241.488281 L 231.210938 252.851562 C 235.015625 256.269531 239.9375 258.144531 245.039062 258.144531 L 272.257812 258.144531 Z M 177.867188 385.179688 L 177.867188 312.996094 L 219.328125 312.996094 L 224.855469 366.128906 C 207.839844 370.558594 191.988281 377.035156 177.867188 385.179688 Z M 151.011719 152.136719 C 150.804688 145.507812 153.195312 139.199219 157.738281 134.367188 C 162.285156 129.535156 168.4375 126.765625 175.0625 126.570312 C 175.320312 126.558594 175.582031 126.558594 175.828125 126.558594 C 189.164062 126.558594 200.226562 137.199219 200.628906 150.625 C 200.835938 157.253906 198.449219 163.566406 193.902344 168.394531 C 189.359375 173.21875 183.214844 175.992188 176.59375 176.1875 C 176.582031 176.1875 176.582031 176.1875 176.582031 176.1875 C 169.867188 176.394531 163.632812 174 158.816406 169.460938 C 153.984375 164.914062 151.207031 158.761719 151.011719 152.136719 Z M 285.554688 84.589844 C 309.433594 95.957031 328.71875 87.023438 345.949219 79.015625 C 363.984375 70.636719 379.671875 63.363281 400.8125 76.570312 L 400.8125 168.128906 C 376.882812 156.675781 357.609375 165.660156 340.367188 173.699219 C 322.34375 182.089844 306.65625 189.375 285.554688 176.152344 Z M 436.9375 446.925781 C 417.1875 396.878906 355.503906 361.566406 285.554688 359.441406 L 285.554688 258.144531 L 290.242188 258.144531 C 301.683594 258.144531 310.980469 248.839844 310.980469 237.40625 C 310.980469 225.972656 301.683594 216.667969 290.242188 216.667969 L 285.554688 216.667969 L 285.554688 191.214844 C 293.691406 195.097656 301.324219 196.742188 308.484375 196.742188 C 322.355469 196.742188 334.601562 191.042969 345.976562 185.757812 C 364.804688 176.984375 381.050781 169.414062 403.65625 185.179688 C 405.695312 186.601562 408.332031 186.777344 410.539062 185.621094 C 412.734375 184.476562 414.109375 182.207031 414.109375 179.726562 L 414.109375 72.996094 C 414.109375 70.824219 413.046875 68.785156 411.265625 67.546875 C 382.359375 47.425781 360.0625 57.804688 340.351562 66.953125 C 321.523438 75.699219 305.277344 83.25 282.699219 67.546875 C 280.683594 66.136719 278.011719 65.96875 275.828125 67.117188 C 273.632812 68.257812 272.257812 70.53125 272.257812 73.003906 L 272.257812 216.667969 L 252.972656 216.667969 L 221.613281 188.550781 C 217.808594 185.132812 212.886719 183.257812 207.769531 183.257812 L 196.535156 183.257812 C 199.066406 181.609375 201.472656 179.757812 203.589844 177.503906 C 210.5625 170.089844 214.238281 160.394531 213.925781 150.222656 C 213.277344 129.21875 196.03125 112.894531 174.671875 113.273438 C 164.492188 113.585938 155.039062 117.835938 148.050781 125.257812 C 141.078125 132.671875 137.402344 142.367188 137.714844 152.539062 C 138.027344 162.722656 142.285156 172.167969 149.699219 179.148438 C 151.347656 180.695312 153.132812 182.039062 154.984375 183.257812 L 148.570312 183.257812 C 142.167969 183.257812 136.222656 186.140625 132.273438 191.171875 L 99.875 232.335938 C 98.566406 233.996094 97.5 235.882812 96.71875 237.972656 L 75.878906 294.4375 C 71.917969 305.15625 77.425781 317.109375 88.136719 321.070312 C 98.433594 324.882812 110.914062 319.234375 114.78125 308.808594 L 134.496094 255.402344 L 136.027344 253.457031 L 136.585938 280.730469 C 136.585938 280.824219 136.585938 280.941406 136.597656 281.070312 C 136.480469 281.6875 136.390625 282.386719 136.390625 282.789062 L 136.390625 413.917969 C 136.390625 415.769531 136.714844 417.535156 137.171875 419.246094 C 130.300781 427.8125 124.769531 437.082031 120.886719 446.925781 C 119.535156 450.339844 121.210938 454.203125 124.625 455.546875 C 128.054688 456.898438 131.910156 455.234375 133.25 451.808594 C 136.171875 444.398438 140.25 437.394531 145.128906 430.769531 L 145.125 430.765625 C 148.519531 433.191406 152.644531 434.65625 157.128906 434.65625 C 168.570312 434.65625 177.867188 425.351562 177.867188 413.917969 L 177.867188 400.550781 C 192.152344 391.328125 208.832031 384.117188 226.953125 379.300781 C 230.167969 387.949219 238.871094 393.832031 248.46875 392.75 C 253.972656 392.179688 258.933594 389.496094 262.425781 385.207031 C 265.300781 381.664062 266.816406 377.371094 266.976562 372.890625 C 270.925781 372.664062 274.90625 372.53125 278.917969 372.53125 C 346.25 372.53125 406.148438 405.132812 424.574219 451.808594 C 425.601562 454.425781 428.109375 456.015625 430.757812 456.015625 C 431.574219 456.015625 432.394531 455.867188 433.199219 455.546875 C 436.613281 454.203125 438.289062 450.339844 436.9375 446.925781" fill="#ba0c2f"/></g></svg>