<?xml version="1.0" encoding="UTF-8" standalone="no"?><svg xmlns="http://www.w3.org/2000/svg" xmlns:xlink="http://www.w3.org/1999/xlink" fill="#ba0c2f" height="27.6" preserveAspectRatio="xMidYMid meet" version="1" viewBox="0.0 0.0 32.0 27.6" width="32" zoomAndPan="magnify"><g><g><g id="change1_2"><path d="M12.494,4.589c0-1.208,0.98-2.189,2.189-2.189h2.633c1.209,0,2.189,0.98,2.189,2.189v0.154h1.693V3.429 C21.199,1.535,19.666,0,17.771,0h-3.543c-1.893,0-3.428,1.535-3.428,3.429v1.314h1.693V4.589z" fill="inherit"/></g><g id="change1_3"><path d="M19.656,18.42c0,0.426-0.344,0.771-0.77,0.771h-5.773c-0.426,0-0.77-0.345-0.77-0.771v-1.758L0,13.754v10.817 c0,0.948,0.768,1.715,1.716,1.715H2.63v0.333c0,0.531,0.431,0.963,0.962,0.963h1.846c0.531,0,0.963-0.432,0.963-0.963v-0.333 H25.6v0.333c0,0.531,0.432,0.963,0.963,0.963h1.846c0.533,0,0.963-0.432,0.963-0.963v-0.333h0.914 c0.947,0,1.715-0.767,1.715-1.715V13.754l-12.344,2.908V18.42z" fill="inherit"/></g><g id="change1_1"><path d="M30.285,5.601h-0.914V5.267c0-0.532-0.43-0.962-0.963-0.962h-1.846c-0.531,0-0.963,0.43-0.963,0.962v0.334H6.4V5.267 c0-0.532-0.432-0.962-0.963-0.962H3.592c-0.531,0-0.962,0.43-0.962,0.962v0.334H1.716C0.768,5.601,0,6.368,0,7.314v5.025 l12.344,2.908v-0.853c0-0.425,0.344-0.77,0.77-0.77h5.773c0.426,0,0.77,0.344,0.77,0.77v0.853L32,12.339V7.314 C32,6.368,31.232,5.601,30.285,5.601z" fill="inherit"/></g></g></g></svg>