<?xml version="1.0" encoding="UTF-8" standalone="no"?><svg xmlns="http://www.w3.org/2000/svg" xmlns:xlink="http://www.w3.org/1999/xlink" data-name="1" fill="#ba0c2f" height="63.5" preserveAspectRatio="xMidYMid meet" version="1" viewBox="0.0 0.0 73.4 63.5" width="73.4" zoomAndPan="magnify"><g id="change1_1"><path d="M25.667,37.76l-6.513,6.514-.026.028A2.729,2.729,0,0,1,15.3,40.416l6.512-6.511a2.727,2.727,0,0,1,3.859,3.855ZM44.2,53.9a2.728,2.728,0,0,0-4.651-1.929L33.2,58.323a2.744,2.744,0,0,0-.059,3.8l.056.053a2.744,2.744,0,0,0,3.861,0l6.349-6.349A2.709,2.709,0,0,0,44.2,53.9Zm-5.966-5.969a2.7,2.7,0,0,0-.781-1.916l-.037-.037A2.743,2.743,0,0,0,33.583,46l-6.349,6.348a2.743,2.743,0,0,0-.012,3.846l-.076.1.088-.088a2.74,2.74,0,0,0,3.858,0l6.349-6.35A2.706,2.706,0,0,0,38.235,47.933Zm-5.828-6.025,0-.093a2.723,2.723,0,0,0-.736-1.875l-.053-.049a2.713,2.713,0,0,0-1.846-.8l-.087,0a2.724,2.724,0,0,0-1.874.735l-.053.056-6.488,6.5a2.743,2.743,0,0,0-.012,3.846l.036.035a2.71,2.71,0,0,0,1.811.775l.094-.005a2.711,2.711,0,0,0,1.929-.793l6.486-6.5A2.7,2.7,0,0,0,32.407,41.908ZM58.752,6.3a6.931,6.931,0,0,1-2.273,1.046,13.921,13.921,0,0,1-2.578.379,26.848,26.848,0,0,1-2.7.006c-1.28-.056-2.615-.188-4.028-.328l-.089-.009c-4.863-.484-10.374-1.031-13.614,1.8l-6.482,6.48a2.731,2.731,0,0,0,3.8,3.919l6.566-6.571a1.493,1.493,0,0,1,2.111,0l.018.02L63.876,37.43c1.43-2.389,2.956-4.949,4.593-7.7,1.913-3.22,3.579-6.033,4.972-8.4L59.5,5.7A8.117,8.117,0,0,1,58.752,6.3ZM38.415,16.183l-5.548,5.541a5.718,5.718,0,0,1-7.987-.084l-.027-.028a5.714,5.714,0,0,1,.025-8.046l5.877-5.875-.019,0c-.234.013-.469.027-.691.037-.977.043-1.649.065-2.249.055a15.134,15.134,0,0,1-1.871-.109,6.326,6.326,0,0,1-3.49-1.471,16.617,16.617,0,0,1-2.77-3.344L18.206.73,17.712,0,0,12.348C2.249,16.2,4.629,20.259,7.1,24.442c2.278,3.852,4.714,7.944,7.443,12.507l5.16-5.157a5.724,5.724,0,0,1,8.08,0A5.948,5.948,0,0,1,28.8,33.163a6.21,6.21,0,0,1,.72,2.578,6.219,6.219,0,0,1,4.518,1.915,6.116,6.116,0,0,1,1.59,3.94,7.266,7.266,0,0,1,3.94,2.169A6.781,6.781,0,0,1,40.7,45.518a7.741,7.741,0,0,1,.531,2.415,2.3,2.3,0,0,1-.023.275l0,.01.012,0a2.266,2.266,0,0,1,.273-.022,5.673,5.673,0,0,1,4.04,1.668l.029.032a5.646,5.646,0,0,1,1.133,6.314,1.4,1.4,0,0,1,.459.3,2.729,2.729,0,0,0,3.858-3.86L39.72,41.364a1.493,1.493,0,1,1,2.112-2.112L53.118,50.537a2.74,2.74,0,0,0,3.856,0l.042-.037a2.751,2.751,0,0,0-.042-3.821L45.689,35.4A1.493,1.493,0,0,1,47.8,33.283L59.084,44.568a2.711,2.711,0,0,0,1.93.793l.125,0a2.733,2.733,0,0,0,1.8-4.655ZM45.031,58.62a.572.572,0,0,1-.083-.107l-3.881,3.881a.565.565,0,0,1,.107.082,2.743,2.743,0,0,0,3.8.059l.055-.057a2.708,2.708,0,0,0,.8-1.93v-.125a2.709,2.709,0,0,0-.738-1.749Z"/></g></svg>