<?xml version="1.0" encoding="UTF-8" standalone="no"?><svg xmlns="http://www.w3.org/2000/svg" xmlns:xlink="http://www.w3.org/1999/xlink" fill="#ba0c2f" height="32" preserveAspectRatio="xMidYMid meet" version="1" viewBox="-0.0 -0.0 32.0 32.0" width="32" zoomAndPan="magnify"><g id="change1_1"><path d="M 0.996094 0 C 0.449219 0.00390625 0.00390625 0.449219 0 0.996094 L 0 6.996094 C 0.0117188 7.539062 0.460938 7.976562 1 7.976562 C 1.539062 7.976562 1.988281 7.539062 2 6.996094 L 2 2 L 7 2 C 7.539062 1.988281 7.976562 1.539062 7.976562 1 C 7.976562 0.460938 7.539062 0.0117188 7 0 Z M 24.898438 0 C 24.378906 0.0390625 23.972656 0.476562 23.972656 1 C 23.972656 1.546875 24.421875 2 24.972656 2 C 24.980469 2 24.992188 2 25.003906 2 L 30 2 L 30 6.996094 C 30.011719 7.539062 30.460938 7.976562 31 7.976562 C 31.539062 7.976562 31.988281 7.539062 32 6.996094 L 32 0.996094 C 31.996094 0.449219 31.542969 -0.00390625 30.996094 0 L 25.003906 0 C 24.96875 -0.00390625 24.933594 -0.00390625 24.898438 0 Z M 15.929688 8.996094 C 15.269531 9.003906 14.617188 9.039062 13.960938 9.109375 C 13.300781 9.179688 12.644531 9.285156 11.988281 9.417969 C 11.332031 9.554688 10.683594 9.714844 10.03125 9.914062 C 9.378906 10.113281 8.734375 10.347656 8.082031 10.605469 C 7.433594 10.867188 6.789062 11.164062 6.144531 11.484375 C 5.496094 11.808594 4.847656 12.164062 4.207031 12.546875 C 3.566406 12.933594 2.929688 13.34375 2.289062 13.789062 C 1.652344 14.234375 1.011719 14.710938 0.375 15.214844 C 0.136719 15.402344 -0.00390625 15.695312 -0.00390625 16 C -0.00390625 16.308594 0.136719 16.597656 0.375 16.785156 C 1.011719 17.292969 1.652344 17.765625 2.289062 18.210938 C 2.929688 18.65625 3.566406 19.066406 4.207031 19.453125 C 4.847656 19.835938 5.496094 20.191406 6.144531 20.515625 C 6.789062 20.835938 7.433594 21.132812 8.082031 21.394531 C 8.734375 21.652344 9.378906 21.886719 10.03125 22.085938 C 10.683594 22.285156 11.332031 22.449219 11.988281 22.582031 C 12.644531 22.714844 13.300781 22.820312 13.960938 22.890625 C 14.617188 22.960938 15.269531 23 15.929688 23 C 15.941406 23 15.953125 23 15.964844 23 C 15.976562 23 15.984375 23 15.996094 23 C 16.128906 23 16.257812 22.988281 16.390625 22.980469 C 16.894531 22.972656 17.402344 22.960938 17.90625 22.914062 C 18.566406 22.851562 19.222656 22.753906 19.878906 22.625 C 20.535156 22.496094 21.203125 22.339844 21.855469 22.144531 C 22.515625 21.953125 23.167969 21.71875 23.820312 21.460938 C 24.476562 21.199219 25.132812 20.90625 25.785156 20.582031 C 26.4375 20.253906 27.085938 19.898438 27.734375 19.511719 C 28.386719 19.117188 29.03125 18.695312 29.683594 18.238281 C 30.332031 17.785156 30.976562 17.300781 31.621094 16.777344 C 31.859375 16.589844 31.996094 16.304688 31.996094 16 C 31.996094 15.695312 31.859375 15.410156 31.621094 15.222656 C 30.976562 14.699219 30.332031 14.214844 29.683594 13.761719 C 29.03125 13.304688 28.386719 12.882812 27.734375 12.488281 C 27.085938 12.101562 26.4375 11.738281 25.785156 11.410156 C 25.132812 11.085938 24.476562 10.800781 23.820312 10.539062 C 23.167969 10.28125 22.515625 10.050781 21.855469 9.855469 C 21.203125 9.660156 20.535156 9.503906 19.878906 9.375 C 19.222656 9.246094 18.566406 9.148438 17.90625 9.089844 C 17.425781 9.042969 16.941406 9.03125 16.460938 9.019531 C 16.304688 9.011719 16.152344 8.996094 15.996094 8.996094 C 15.984375 8.996094 15.976562 9 15.964844 9 C 15.953125 9 15.941406 8.996094 15.929688 8.996094 Z M 15.972656 11 C 16.09375 11 16.214844 11.011719 16.335938 11.015625 C 18.949219 11.1875 21.003906 13.335938 21.003906 15.996094 C 21.003906 18.597656 19.039062 20.722656 16.511719 20.976562 C 16.332031 20.980469 16.152344 21 15.972656 21 C 15.863281 21 15.757812 20.992188 15.648438 20.984375 C 15.589844 20.984375 15.527344 20.976562 15.46875 20.976562 C 12.945312 20.710938 10.996094 18.589844 10.996094 15.996094 C 10.996094 13.230469 13.210938 11.011719 15.972656 11 Z M 21.660156 11.902344 C 22.136719 12.050781 22.609375 12.207031 23.085938 12.394531 C 23.683594 12.632812 24.289062 12.90625 24.894531 13.207031 C 25.496094 13.507812 26.101562 13.839844 26.707031 14.203125 C 27.316406 14.566406 27.929688 14.960938 28.539062 15.390625 C 28.808594 15.578125 29.074219 15.804688 29.34375 16.003906 C 29.078125 16.203125 28.804688 16.421875 28.539062 16.609375 C 27.929688 17.039062 27.316406 17.433594 26.707031 17.796875 C 26.101562 18.160156 25.496094 18.492188 24.894531 18.792969 C 24.289062 19.097656 23.683594 19.367188 23.085938 19.605469 C 22.605469 19.792969 22.132812 19.949219 21.65625 20.101562 C 22.5 18.945312 23.003906 17.527344 23.003906 15.996094 C 23.003906 14.46875 22.5 13.054688 21.660156 11.902344 Z M 10.3125 11.933594 C 9.488281 13.082031 9 14.480469 9 15.996094 C 9 17.515625 9.492188 18.917969 10.316406 20.066406 C 9.820312 19.910156 9.324219 19.738281 8.828125 19.539062 C 8.230469 19.296875 7.632812 19.027344 7.035156 18.730469 C 6.4375 18.429688 5.835938 18.097656 5.234375 17.738281 C 4.632812 17.378906 4.035156 16.984375 3.433594 16.5625 C 3.179688 16.386719 2.925781 16.183594 2.671875 15.996094 C 2.925781 15.808594 3.179688 15.605469 3.433594 15.429688 C 4.035156 15.007812 4.632812 14.621094 5.234375 14.261719 C 5.835938 13.902344 6.4375 13.574219 7.035156 13.273438 C 7.632812 12.972656 8.230469 12.703125 8.828125 12.460938 C 9.324219 12.261719 9.816406 12.09375 10.3125 11.933594 Z M 15.996094 13 C 14.351562 13 13 14.351562 13 15.996094 C 13 17.640625 14.351562 19.003906 15.996094 19.003906 C 17.640625 19.003906 19.003906 17.640625 19.003906 15.996094 C 19.003906 14.351562 17.640625 13 15.996094 13 Z M 15.996094 15 C 16.558594 15 17 15.433594 17 15.996094 C 17 16.558594 16.558594 17 15.996094 17 C 15.433594 17 15 16.558594 15 15.996094 C 15 15.433594 15.433594 15 15.996094 15 Z M 0.980469 23.984375 C 0.441406 23.992188 0 24.441406 0 24.984375 C 0 24.988281 0 24.996094 0 25 L 0 30.996094 C -0.00390625 31.546875 0.449219 31.996094 0.996094 32 L 7 32 C 7.003906 32 7.011719 32 7.019531 32 C 7.570312 32 8.019531 31.546875 8.019531 31 C 8.019531 30.449219 7.570312 30 7.019531 30 C 7.011719 30 7.003906 30 7 30 L 2 30 L 2 25 C 2 24.996094 2 24.988281 2 24.984375 C 2 24.4375 1.550781 23.984375 1 23.984375 C 0.996094 23.984375 0.988281 23.984375 0.980469 23.984375 Z M 30.980469 23.984375 C 30.441406 23.992188 30 24.441406 30 24.984375 C 30 24.988281 30 24.996094 30 25 L 30 30 L 25.003906 30 C 24.460938 30.011719 24.023438 30.460938 24.023438 31 C 24.023438 31.539062 24.460938 31.988281 25.003906 32 L 30.996094 32 C 30.996094 32 31 32 31 32 C 31.546875 32 32 31.546875 32 31 C 32 31 32 30.996094 32 30.996094 L 32 25 C 32 24.996094 32 24.988281 32 24.984375 C 32 24.4375 31.546875 23.984375 31 23.984375 C 30.992188 23.984375 30.988281 23.984375 30.980469 23.984375" fill="inherit" fill-rule="evenodd"/></g></svg>