<?xml version="1.0" encoding="UTF-8" standalone="no"?><svg xmlns="http://www.w3.org/2000/svg" xmlns:xlink="http://www.w3.org/1999/xlink" fill="#000000" height="1080" preserveAspectRatio="xMidYMid meet" version="1" viewBox="0.0 0.0 690.1 1080.0" width="690.1" zoomAndPan="magnify"><g id="change1_1"><path d="M130.06918,54.02722l19.74615,19.74622l-19.74615,19.74597l-19.74622-19.74597L130.06918,54.02722z M110.32296,183.47369l19.74622,19.74603l19.74615-19.74603l-19.74615-19.74597L110.32296,183.47369z M110.32296,128.62347 l19.74622,19.74622l19.74615-19.74622l-19.74615-19.74597L110.32296,128.62347z M168.70944,345.31049 c6.30939,6.30664,12.61951,12.61188,18.92889,18.91803l16.20428-16.20422l-18.9234-18.9234L168.70944,345.31049z M165.99588,293.17401l18.92334,18.9234l18.9234-18.9234l-18.9234-18.92316L165.99588,293.17401z M110.32296,238.32397 l19.74622,19.74597l19.74615-19.74597l-19.74615-19.74622L110.32296,238.32397z M54.65011,183.47369l20.5686,20.56885 l20.56903-20.56885l-20.56903-20.56879L54.65011,183.47369z M113.44045,290.05658 c6.58295,6.58142,13.16595,13.16241,19.74897,19.74341l16.62592-16.62598l-19.74615-19.74597L113.44045,290.05658z M223.98911,400.55438c6.0354,6.03156,12.07074,12.06335,18.10651,18.09436l15.77423-15.77417l-18.10052-18.10059 L223.98911,400.55438z M165.99588,73.77344l18.92334,18.92334l18.9234-18.92334l-18.9234-18.9234L165.99588,73.77344z M54.65011,128.62347l20.5686,20.56903l20.56903-20.56903l-20.56903-20.5686L54.65011,128.62347z M221.66873,348.02429 l18.10059,18.10052l18.10052-18.10052l-18.10052-18.10052L221.66873,348.02429z M221.66873,293.17401l18.10059,18.10059 l18.10052-18.10059l-18.10052-18.10052L221.66873,293.17401z M165.99588,183.47369l18.92334,18.9234l18.9234-18.9234 l-18.9234-18.92316L165.99588,183.47369z M165.99588,18.92316l18.92334,18.9234l18.9234-18.9234L184.91922,0L165.99588,18.92316z M165.99588,238.32397l18.92334,18.9234l18.9234-18.9234l-18.9234-18.92334L165.99588,238.32397z M165.99588,128.62347 l18.92334,18.92334l18.9234-18.92334l-18.9234-18.92316L165.99588,128.62347z M110.32296,1006.22656l19.74622,19.74597 l19.74615-19.74597l-19.74615-19.74622L110.32296,1006.22656z M333.01492,731.97571l16.4549,16.4549l16.45526-16.4549 l-16.45526-16.45514L333.01492,731.97571z M333.01492,622.27515l16.4549,16.45514l16.45526-16.45514l-16.45526-16.4549 L333.01492,622.27515z M58.17184,234.80225c6.85699,6.85559,13.71441,13.71082,20.57141,20.56622l17.04449-17.04449 l-20.56903-20.56879L58.17184,234.80225z M333.01492,786.82574l16.4549,16.45508l16.45526-16.45508l-16.45526-16.45508 L333.01492,786.82574z M334.57742,511.01215c5.48969,5.48022,10.97705,10.9632,16.46716,16.44281l14.88049-14.88013 l-16.45526-16.45508L334.57742,511.01215z M333.01492,567.42511l16.4549,16.4549l16.45526-16.4549l-16.45526-16.45508 L333.01492,567.42511z M333.01492,402.87457l16.4549,16.4549l16.45526-16.4549l-16.45526-16.45514L333.01492,402.87457z M333.01492,457.72461l16.4549,16.45508l16.45526-16.45508l-16.45526-16.4549L333.01492,457.72461z M333.01492,896.52625 l16.4549,16.4549l16.45526-16.4549l-16.45526-16.45508L333.01492,896.52625z M333.01492,677.12543l16.4549,16.45508 l16.45526-16.45508l-16.45526-16.45508L333.01492,677.12543z M333.01492,841.67596l16.4549,16.45514l16.45526-16.45514 l-16.45526-16.45508L333.01492,841.67596z M110.32296,951.37628l19.74622,19.74622l19.74615-19.74622l-19.74615-19.74597 L110.32296,951.37628z M54.65011,896.52625l20.5686,20.5686l20.56903-20.5686l-20.56903-20.56903L54.65011,896.52625z M2.90322,179.54791c7.13184,7.12921,14.26282,14.25922,21.39423,21.38867l17.46265-17.46289l-21.39142-21.3916L2.90322,179.54791z M54.65011,951.37628l20.5686,20.56885l20.56903-20.56885L75.21871,930.8075L54.65011,951.37628z M110.32296,841.67596 l19.74622,19.74603l19.74615-19.74603l-19.74615-19.74597L110.32296,841.67596z M110.32296,896.52625l19.74622,19.74597 l19.74615-19.74597l-19.74615-19.74622L110.32296,896.52625z M221.66873,238.32397l18.10059,18.10052l18.10052-18.10052 l-18.10052-18.10052L221.66873,238.32397z M110.53207,787.03503l19.53712,19.53693l19.74615-19.74622l-19.5351-19.53473 C123.69765,773.87238,117.11465,780.45343,110.53207,787.03503z M221.66873,896.52625l18.10059,18.10052l18.10052-18.10052 l-18.10052-18.10077L221.66873,896.52625z M221.66873,183.47369l18.10059,18.10059l18.10052-18.10059l-18.10052-18.10052 L221.66873,183.47369z M221.66873,1006.22656l18.10059,18.10059l18.10052-18.10059l-18.10052-18.10077L221.66873,1006.22656z M221.66873,786.82574l18.10059,18.10052l18.10052-18.10052l-18.10052-18.10052L221.66873,786.82574z M221.66873,951.37628 l18.10059,18.10059l18.10052-18.10059l-18.10052-18.10052L221.66873,951.37628z M165.99588,1006.22656l18.92334,18.9231 l18.9234-18.9231l-18.9234-18.9234L165.99588,1006.22656z M221.66873,677.12543l18.10059,18.10052l18.10052-18.10052 l-18.10052-18.10052L221.66873,677.12543z M221.66873,731.97571l18.10059,18.10052l18.10052-18.10052l-18.10052-18.10059 L221.66873,731.97571z M277.34201,896.52625l17.27771,17.27771l17.27777-17.27771l-17.27777-17.27789L277.34201,896.52625z M277.34201,622.27515l17.27771,17.27795l17.27777-17.27795l-17.27777-17.27771L277.34201,622.27515z M165.99588,1061.07666 L184.91922,1080l18.9234-18.92334l-18.9234-18.92322L165.99588,1061.07666z M277.34201,841.67596l17.27771,17.27777 l17.27777-17.27777l-17.27777-17.27789L277.34201,841.67596z M277.34201,951.37628l17.27771,17.27777l17.27777-17.27777 l-17.27777-17.27771L277.34201,951.37628z M277.34201,786.82574l17.27771,17.27771l17.27777-17.27771l-17.27777-17.27771 L277.34201,786.82574z M277.34201,677.12543l17.27771,17.27771l17.27777-17.27771l-17.27777-17.27795L277.34201,677.12543z M277.34201,731.97571l17.27771,17.27771l17.27777-17.27771l-17.27777-17.27795L277.34201,731.97571z M221.66873,841.67596 l18.10059,18.10059l18.10052-18.10059l-18.10052-18.10052L221.66873,841.67596z M277.34201,402.87457l17.27771,17.27771 l17.27777-17.27771l-17.27777-17.27795L277.34201,402.87457z M277.34201,348.02429l17.27771,17.27789l17.27777-17.27789 l-17.27777-17.27771L277.34201,348.02429z M277.34201,293.17401l17.27771,17.27795l17.27777-17.27795l-17.27777-17.27771 L277.34201,293.17401z M165.99588,951.37628l18.92334,18.9234l18.9234-18.9234l-18.9234-18.92334L165.99588,951.37628z M279.27512,455.7915c5.76257,5.7558,11.52747,11.5094,17.29041,17.26501l15.33197-15.33191l-17.27777-17.27771L279.27512,455.7915z M221.66873,73.77344l18.10059,18.10052l18.10052-18.10052l-18.10052-18.10059L221.66873,73.77344z M277.34201,128.62347 l17.27771,17.27789l17.27777-17.27789l-17.27777-17.27771L277.34201,128.62347z M221.66873,128.62347l18.10059,18.10052 l18.10052-18.10052l-18.10052-18.10052L221.66873,128.62347z M277.34201,238.32397l17.27771,17.27771l17.27777-17.27771 l-17.27777-17.27771L277.34201,238.32397z M277.34201,183.47369l17.27771,17.27795l17.27777-17.27795l-17.27777-17.27771 L277.34201,183.47369z M165.99588,786.82574l18.92334,18.92334l18.9234-18.92334l-18.9234-18.9234L165.99588,786.82574z M165.99588,731.97571l18.92334,18.92316l18.9234-18.92316l-18.9234-18.9234L165.99588,731.97571z M165.99588,896.52625 l18.92334,18.92316l18.9234-18.92316l-18.9234-18.92334L165.99588,896.52625z M165.99588,841.67596l18.92334,18.92322 l18.9234-18.92322l-18.9234-18.92334L165.99588,841.67596z M0.00003,897.54901l20.36865,20.36865l21.39142-21.39142 l-20.3667-20.36707C14.26241,883.289,7.13143,890.41943,0.00003,897.54901z M333.01492,348.02429l16.4549,16.45508 l16.45526-16.45508l-16.45526-16.45508L333.01492,348.02429z M55.26583,842.29175l19.95288,19.95306l20.56903-20.56885 l-19.95172-19.95148C68.97945,828.58032,62.1224,835.43573,55.26583,842.29175z M500.03354,457.72461l13.98679,13.98682 l13.98682-13.98682l-13.98682-13.98682L500.03354,457.72461z M444.36069,402.87457l14.80963,14.80945l14.80927-14.80945 l-14.80927-14.80969L444.36069,402.87457z M444.36069,293.17401l14.80963,14.80969l14.80927-14.80969l-14.80927-14.80945 L444.36069,293.17401z M444.36069,512.57483l14.80963,14.80945l14.80927-14.80945l-14.80927-14.80945L444.36069,512.57483z M444.36069,457.72461l14.80963,14.80963l14.80927-14.80963l-14.80927-14.80945L444.36069,457.72461z M388.68777,731.97571 l15.63208,15.63226l15.63245-15.63226l-15.63245-15.63251L388.68777,731.97571z M388.68777,841.67596l15.63208,15.63232 l15.63245-15.63232l-15.63245-15.63226L388.68777,841.67596z M388.68777,786.82574l15.63208,15.63226l15.63245-15.63226 l-15.63245-15.63226L388.68777,786.82574z M444.36069,348.02429l14.80963,14.80945l14.80927-14.80945l-14.80927-14.80945 L444.36069,348.02429z M444.36069,567.42511l14.80963,14.80945l14.80927-14.80945l-14.80927-14.80963L444.36069,567.42511z M444.36069,731.97571l14.80963,14.80945l14.80927-14.80945l-14.80927-14.80969L444.36069,731.97571z M500.03354,348.02429 l13.98679,13.98682l13.98682-13.98682l-13.98682-13.98682L500.03354,348.02429z M500.03354,402.87457l13.98679,13.98682 l13.98682-13.98682l-13.98682-13.98688L500.03354,402.87457z M500.03354,512.57483l13.98679,13.98688l13.98682-13.98688 l-13.98682-13.98682L500.03354,512.57483z M444.36069,786.82574l14.80963,14.80963l14.80927-14.80963l-14.80927-14.80945 L444.36069,786.82574z M444.36069,622.27515l14.80963,14.80969l14.80927-14.80969l-14.80927-14.80945L444.36069,622.27515z M444.36069,677.12543l14.80963,14.80945l14.80927-14.80945l-14.80927-14.80963L444.36069,677.12543z M388.68777,677.12543 l15.63208,15.63226l15.63245-15.63226l-15.63245-15.63226L388.68777,677.12543z M388.68777,512.57483l15.63208,15.63232 l15.63245-15.63232l-15.63245-15.63226L388.68777,512.57483z M388.68777,457.72461l15.63208,15.63245l15.63245-15.63245 l-15.63245-15.63226L388.68777,457.72461z M388.68777,567.42511l15.63208,15.63226l15.63245-15.63226l-15.63245-15.63245 L388.68777,567.42511z M333.01492,293.17401l16.4549,16.45514l16.45526-16.45514l-16.45526-16.4549L333.01492,293.17401z M388.68777,622.27515l15.63208,15.63251l15.63245-15.63251l-15.63245-15.63226L388.68777,622.27515z M388.68777,402.87457 l15.63208,15.63226l15.63245-15.63226l-15.63245-15.63251L388.68777,402.87457z M388.68777,293.17401l15.63208,15.63251 l15.63245-15.63251l-15.63245-15.63226L388.68777,293.17401z M388.68777,348.02429l15.63208,15.63226l15.63245-15.63226 l-15.63245-15.63226L388.68777,348.02429z M388.68777,238.32397l15.63208,15.63226l15.63245-15.63226l-15.63245-15.63226 L388.68777,238.32397z M333.01492,183.47369l16.4549,16.45514l16.45526-16.45514l-16.45526-16.45508L333.01492,183.47369z M690.08923,512.57483l-11.51831-11.51849l-11.51837,11.51849l11.51837,11.51855L690.08923,512.57483z M333.01492,238.32397 l16.4549,16.4549l16.45526-16.4549l-16.45526-16.45508L333.01492,238.32397z M555.70642,677.12543l13.16394,13.164l13.16443-13.164 l-13.16443-13.164L555.70642,677.12543z M555.70642,457.72461l13.16394,13.164l13.16443-13.164l-13.16443-13.164 L555.70642,457.72461z M667.05255,567.42511l11.51837,11.51837l11.51831-11.51837l-11.51831-11.51855L667.05255,567.42511z M555.70642,512.57483l13.16394,13.164l13.16443-13.164l-13.16443-13.16394L555.70642,512.57483z M500.03354,677.12543 l13.98679,13.98682l13.98682-13.98682l-13.98682-13.98682L500.03354,677.12543z M500.03354,622.27515l13.98679,13.98682 l13.98682-13.98682l-13.98682-13.98682L500.03354,622.27515z M500.03354,731.97571l13.98679,13.98682l13.98682-13.98682 l-13.98682-13.98688L500.03354,731.97571z M555.70642,567.42511l13.16394,13.164l13.16443-13.164l-13.16443-13.164 L555.70642,567.42511z M555.70642,402.87457l13.16394,13.16394l13.16443-13.16394l-13.16443-13.164L555.70642,402.87457z M611.37927,567.42511l12.34155,12.34119l12.34119-12.34119l-12.34119-12.34137L611.37927,567.42511z M611.37927,622.27515 l12.34155,12.34137l12.34119-12.34137l-12.34119-12.34113L611.37927,622.27515z M611.37927,512.57483l12.34155,12.34137 l12.34119-12.34137l-12.34119-12.34137L611.37927,512.57483z M500.03354,567.42511l13.98679,13.98682l13.98682-13.98682 l-13.98682-13.98682L500.03354,567.42511z M611.37927,457.72461l12.34155,12.34137l12.34119-12.34137l-12.34119-12.34119 L611.37927,457.72461z M555.70642,622.27515l13.16394,13.164l13.16443-13.164l-13.16443-13.164L555.70642,622.27515z" fill="#ba0c2f"/></g></svg>