<?xml version="1.0" encoding="UTF-8" standalone="no"?><svg xmlns="http://www.w3.org/2000/svg" xmlns:xlink="http://www.w3.org/1999/xlink" fill="#ba0c2f" height="1995.7" preserveAspectRatio="xMidYMid meet" version="1" viewBox="13.1 0.0 1978.5 1995.7" width="1978.5" zoomAndPan="magnify"><g clip-rule="evenodd" fill-rule="evenodd" id="change1_1"><path d="M1506.2,1630.3v316.8c0,26.8-21.7,48.6-48.6,48.6H61.6 c-26.8,0-48.5-21.7-48.5-48.6V210.9c0-26.8,21.7-48.6,48.5-48.6h350.2c2.7-24.4,13.7-47.3,31.2-64.9C463.3,77,491,65.5,519.8,65.5 h158.8C694.8,27.1,732.8,0,777.1,0c44.3,0,82.3,27,98.5,65.5h123.9c28.9,0,56.5,11.5,76.9,31.9c17.5,17.5,28.4,40.4,31.2,64.9 h350.2c26.8,0,48.6,21.7,48.6,48.6v738.9c-30.5-12.8-63.1-21.5-97.1-25.7V259.4H1108v8.5c0,9.4-2.9,18.4-8,25 c-5.1,6.6-12.1,9.6-19.3,10.4c-110.9-3.1-530.2,0-641.6,0c-7.3,0-14.2-3.7-19.4-10.4c-5.1-6.6-8-15.6-8-25v-8.5H110.1v1639.1h1299 V1656C1443.1,1651.8,1475.7,1643.1,1506.2,1630.3L1506.2,1630.3z M527.3,1451.2c0-10.6-8.6-19.2-19.2-19.2H225.3 c-10.6,0-19.2,8.6-19.2,19.2v282.7c0,10.6,8.6,19.2,19.2,19.2H508c10.6,0,19.2-8.6,19.2-19.2V1451.2L527.3,1451.2z M488.8,1470.4 v244.2H244.5v-244.2H488.8L488.8,1470.4z M260.2,1591.2c0,0,12.8,22.8,24.8,42.1c9.1,14.6,17.7,27.1,17.7,27.1 c3.6,5,9,8.4,14.9,9.2c5.9,0.8,11.9-0.8,16.7-4.7c0,0,18.4-14.8,41.3-34.4c40.2-34.4,94.4-83.1,94.4-83.1c7.4-6,8.8-17.2,3.2-25.1 c-5.6-7.8-16.2-9.3-23.6-3.4c0,0-58.5,42.7-100.4,74.7c-9.4,7.2-17.9,13.9-24.8,19.3c-1.8-2.2-3.7-4.5-5.6-6.9 c-14.4-17.4-31.6-36.5-31.6-36.5c-5.6-7.9-16.2-9.4-23.6-3.4C256,1572.1,254.6,1583.4,260.2,1591.2L260.2,1591.2z M527.3,950.7 c0-10.6-8.6-19.2-19.2-19.2H225.3c-10.6,0-19.2,8.6-19.2,19.2v282.7c0,10.6,8.6,19.2,19.2,19.2H508c10.6,0,19.2-8.6,19.2-19.2 V950.7L527.3,950.7z M488.8,970v244.2H244.5V970H488.8L488.8,970z M260.2,1090.8c0,0,12.8,22.8,24.8,42.1 c9.1,14.7,17.7,27.1,17.7,27.1c3.6,5.1,9,8.4,14.9,9.2c5.9,0.9,11.9-0.8,16.7-4.7c0,0,18.4-14.8,41.3-34.4 c40.2-34.4,94.4-83.1,94.4-83.1c7.4-6,8.8-17.2,3.2-25.1c-5.6-7.9-16.2-9.4-23.6-3.4c0,0-58.5,42.7-100.4,74.7 c-9.4,7.2-17.9,13.9-24.8,19.3c-1.8-2.2-3.7-4.6-5.6-6.9c-14.4-17.4-31.6-36.5-31.6-36.5c-5.6-7.9-16.2-9.4-23.6-3.4 C256,1071.7,254.6,1082.9,260.2,1090.8L260.2,1090.8z M527.3,450.3c0-10.6-8.6-19.2-19.2-19.2H225.3c-10.6,0-19.2,8.6-19.2,19.2 V733c0,10.6,8.6,19.2,19.2,19.2H508c10.6,0,19.2-8.6,19.2-19.2V450.3L527.3,450.3z M488.8,469.5v244.2H244.5V469.5H488.8 L488.8,469.5z M260.2,590.3c0,0,12.8,22.8,24.8,42.1c9.1,14.6,17.7,27.1,17.7,27.1c3.6,5,9,8.4,14.9,9.2c5.9,0.9,11.9-0.8,16.7-4.7 c0,0,18.4-14.8,41.3-34.4c40.2-34.4,94.4-83.1,94.4-83.1c7.4-6,8.8-17.2,3.2-25.1c-5.6-7.8-16.2-9.4-23.6-3.4 c0,0-58.5,42.7-100.4,74.7c-9.4,7.2-17.9,13.9-24.8,19.3c-1.8-2.2-3.7-4.6-5.6-6.9c-14.4-17.4-31.6-36.5-31.6-36.5 c-5.6-7.8-16.2-9.4-23.6-3.4C256,571.2,254.6,582.5,260.2,590.3L260.2,590.3z M777.1,53.2c29.6,0,53.7,24.1,53.7,53.8 c0,29.7-24.1,53.8-53.7,53.8c-29.6,0-53.7-24.1-53.7-53.8C723.4,77.4,747.4,53.2,777.1,53.2L777.1,53.2z"/><path d="M1200.8,1296.1c0,0,19.1,34,37,62.9c13.6,21.9,26.4,40.5,26.4,40.5 c5.4,7.5,13.5,12.5,22.3,13.8c8.9,1.3,17.8-1.3,25-7c0,0,27.5-22.2,61.7-51.5c60-51.5,141-124.2,141-124.2c11-9,13.2-25.7,4.7-37.5 c-8.4-11.7-24.3-14-35.3-5c0,0-87.4,63.8-150,111.7c-14,10.7-26.8,20.7-37.1,28.9c-2.7-3.3-5.5-6.8-8.4-10.3 c-21.5-26-47.3-54.6-47.3-54.6c-8.4-11.7-24.2-14-35.3-5.1C1194.6,1267.6,1192.4,1284.4,1200.8,1296.1L1200.8,1296.1z"/><path d="M1617.7,1506.4l59.6,59.6l-67.3,67.3l-63.4-63.4 C1573.3,1552.3,1597.3,1530.8,1617.7,1506.4L1617.7,1506.4z"/><path d="M1360.5,977.5c-171.7,0-311.1,139.4-311.1,311.1 c0,171.7,139.4,311.1,311.1,311.1s311.1-139.4,311.1-311.1C1671.6,1116.9,1532.2,977.5,1360.5,977.5L1360.5,977.5z M1360.5,1030.4 c142.5,0,258.2,115.7,258.2,258.2c0,142.5-115.7,258.2-258.2,258.2s-258.2-115.7-258.2-258.2 C1102.3,1146.1,1218,1030.4,1360.5,1030.4L1360.5,1030.4z"/><path d="M1973.2,1904.4c17.2-17.2,18.4-43.7,2.8-59.4 c-77.5-77.5-287.7-287.7-287.7-287.7l-88.1,88.1c0,0,210.2,210.2,287.7,287.7c15.6,15.6,42.2,14.4,59.4-2.8 C1955.7,1921.9,1964.8,1912.8,1973.2,1904.4L1973.2,1904.4z"/><path d="M663.9,528.8l510.3-0.2c11.9,0,21.5-9.6,21.5-21.5 c0-11.9-9.6-21.5-21.5-21.5l-510.3,0.2c-11.9,0-21.5,9.7-21.5,21.5C642.4,519.2,652,528.8,663.9,528.8L663.9,528.8z"/><path d="M660.9,1562.9l438.6-0.2c10.2,0,18.5-9.6,18.5-21.5 c0-11.9-8.3-21.5-18.5-21.5l-438.6,0.2c-10.2,0-18.5,9.6-18.5,21.5C642.4,1553.3,650.7,1562.9,660.9,1562.9L660.9,1562.9z"/><path d="M663.9,666.8l510.3-0.2c11.9,0,21.5-9.6,21.5-21.5 c0-11.9-9.6-21.5-21.5-21.5l-510.3,0.2c-11.9,0-21.5,9.6-21.5,21.5C642.4,657.2,652,666.8,663.9,666.8L663.9,666.8z"/><path d="M663.9,1700.9l510.3-0.2c11.9,0,21.5-9.6,21.5-21.5 c0-11.9-9.6-21.5-21.5-21.5l-510.3,0.2c-11.9,0-21.5,9.6-21.5,21.5C642.4,1691.3,652,1700.9,663.9,1700.9L663.9,1700.9z"/><path d="M659.1,1063.8l396.5-0.2c9.2,0,16.7-9.6,16.7-21.5 c0-11.9-7.5-21.5-16.7-21.5l-396.5,0.2c-9.2,0-16.7,9.6-16.7,21.5C642.4,1054.2,649.9,1063.8,659.1,1063.8L659.1,1063.8z"/><path d="M657,1201.8l347.2-0.2c8.1,0,14.6-9.7,14.6-21.5c0-11.9-6.6-21.5-14.6-21.5 l-347.2,0.2c-8.1,0-14.6,9.6-14.6,21.5C642.4,1192.2,649,1201.8,657,1201.8L657,1201.8z"/></g></svg>