<?xml version="1.0" encoding="UTF-8" standalone="no"?><svg xmlns="http://www.w3.org/2000/svg" xmlns:xlink="http://www.w3.org/1999/xlink" fill="#ba0c2f" height="480.8" preserveAspectRatio="xMidYMid meet" version="1" viewBox="48.1 48.1 480.8 480.8" width="480.8" zoomAndPan="magnify"><g id="change1_1"><path d="m288.46,48.08c-132.76,0-240.38,107.62-240.38,240.38s107.62,240.38,240.38,240.38,240.38-107.62,240.38-240.38S421.22,48.08,288.46,48.08Zm0,67.31c47.8,0,86.54,38.74,86.54,86.54s-38.74,86.54-86.54,86.54-86.54-38.75-86.54-86.54,38.74-86.54,86.54-86.54Zm0,355.77c-61.44,0-115.66-30.42-148.78-76.92,33.12-46.5,87.34-76.92,148.78-76.92s115.66,30.42,148.78,76.92c-33.12,46.5-87.34,76.92-148.78,76.92Z"/></g></svg>