<?xml version="1.0" encoding="UTF-8" standalone="no"?><svg xmlns="http://www.w3.org/2000/svg" xmlns:xlink="http://www.w3.org/1999/xlink" fill="#ba0c2f" height="802.5" preserveAspectRatio="xMidYMid meet" version="1" viewBox="116.4 98.8 767.3 802.5" width="767.3" zoomAndPan="magnify"><g id="change1_1"><path d="M745.1,178.7h-37.3V123c0-13.4-10.9-24.2-24.2-24.2c-13.4,0-24.2,10.9-24.2,24.2v55.8H326.8V123c0-13.4-10.9-24.2-24.2-24.2 c-13.4,0-24.2,10.9-24.2,24.2v55.8h-23.5c-76.5,0-138.5,62-138.5,138.5v445.5c0,76.5,62,138.5,138.5,138.5h490.2 c76.5,0,138.5-62,138.5-138.5V317.3C883.7,240.8,821.6,178.7,745.1,178.7z M659.3,204.3v50.3c0,13.4,10.9,24.2,24.2,24.2 c13.4,0,24.2-10.9,24.2-24.2v-48.4c15.5,9,26,25.8,26,45c0,28.7-23.3,52-52,52c-28.7,0-52-23.3-52-52 C629.9,230.5,641.9,212.7,659.3,204.3z M278.3,205.2v49.4c0,13.4,10.9,24.2,24.2,24.2c13.4,0,24.2-10.9,24.2-24.2v-49.4 c16.5,8.7,27.7,26,27.7,45.9c0,28.7-23.3,52-52,52s-52-23.3-52-52C250.6,231.2,261.9,213.9,278.3,205.2z M835.2,762.7 c0,49.7-40.4,90-90,90H254.9c-49.7,0-90-40.4-90-90v-369h670.3V762.7z"/></g><g id="change1_2"><path d="M327.5,533.4h-67.1c-5.4,0-9.8-4.4-9.8-9.8v-67.1c0-5.4,4.4-9.8,9.8-9.8h67.1c5.4,0,9.8,4.4,9.8,9.8v67.1 C337.2,529,332.9,533.4,327.5,533.4z"/></g><g id="change1_3"><path d="M327.5,671h-67.1c-5.4,0-9.8-4.4-9.8-9.8v-67.1c0-5.4,4.4-9.8,9.8-9.8h67.1c5.4,0,9.8,4.4,9.8,9.8v67.1 C337.2,666.7,332.9,671,327.5,671z"/></g><g id="change1_4"><path d="M327.5,808.7h-67.1c-5.4,0-9.8-4.4-9.8-9.8v-67.1c0-5.4,4.4-9.8,9.8-9.8h67.1c5.4,0,9.8,4.4,9.8,9.8V799 C337.2,804.3,332.9,808.7,327.5,808.7z"/></g><g id="change1_5"><path d="M465.1,533.4H398c-5.4,0-9.8-4.4-9.8-9.8v-67.1c0-5.4,4.4-9.8,9.8-9.8h67.1c5.4,0,9.8,4.4,9.8,9.8v67.1 C474.9,529,470.5,533.4,465.1,533.4z"/></g><g id="change1_6"><path d="M465.1,671H398c-5.4,0-9.8-4.4-9.8-9.8v-67.1c0-5.4,4.4-9.8,9.8-9.8h67.1c5.4,0,9.8,4.4,9.8,9.8v67.1 C474.9,666.7,470.5,671,465.1,671z"/></g><g id="change1_7"><path d="M465.1,808.7H398c-5.4,0-9.8-4.4-9.8-9.8v-67.1c0-5.4,4.4-9.8,9.8-9.8h67.1c5.4,0,9.8,4.4,9.8,9.8V799 C474.9,804.3,470.5,808.7,465.1,808.7z"/></g><g id="change1_8"><path d="M602.8,533.4h-67.1c-5.4,0-9.8-4.4-9.8-9.8v-67.1c0-5.4,4.4-9.8,9.8-9.8h67.1c5.4,0,9.8,4.4,9.8,9.8v67.1 C612.5,529,608.2,533.4,602.8,533.4z"/></g><g id="change1_9"><path d="M602.8,671h-67.1c-5.4,0-9.8-4.4-9.8-9.8v-67.1c0-5.4,4.4-9.8,9.8-9.8h67.1c5.4,0,9.8,4.4,9.8,9.8v67.1 C612.5,666.7,608.2,671,602.8,671z"/></g><g id="change1_10"><path d="M602.8,808.7h-67.1c-5.4,0-9.8-4.4-9.8-9.8v-67.1c0-5.4,4.4-9.8,9.8-9.8h67.1c5.4,0,9.8,4.4,9.8,9.8V799 C612.5,804.3,608.2,808.7,602.8,808.7z"/></g><g id="change1_11"><path d="M740.5,533.4h-67.1c-5.4,0-9.8-4.4-9.8-9.8v-67.1c0-5.4,4.4-9.8,9.8-9.8h67.1c5.4,0,9.8,4.4,9.8,9.8v67.1 C750.2,529,745.8,533.4,740.5,533.4z"/></g><g id="change1_12"><path d="M740.5,671h-67.1c-5.4,0-9.8-4.4-9.8-9.8v-67.1c0-5.4,4.4-9.8,9.8-9.8h67.1c5.4,0,9.8,4.4,9.8,9.8v67.1 C750.2,666.7,745.8,671,740.5,671z"/></g></svg>