<?xml version="1.0" encoding="UTF-8" standalone="no"?><svg xmlns="http://www.w3.org/2000/svg" xmlns:xlink="http://www.w3.org/1999/xlink" fill="#000000" height="157.7" preserveAspectRatio="xMidYMid meet" version="1" viewBox="0.0 -0.1 512.0 157.7" width="512" zoomAndPan="magnify"><g><g id="change1_1"><path d="M105.5,157.6c-0.1,0-0.2,0-0.3,0c-1.7-0.1-2.9-1.4-3-3.1L97.7,20.5L84.2,98.3c-0.3,1.8-1.8,3-3.6,3.1 c-1.8,0-3.3-1.1-3.7-2.9l-3.6-15.9c-0.4-1.7-1.8-2.8-3.5-2.8c-4.2,0-7.8-3-8.5-7.1L60,65c0-0.1,0-0.2-0.2-0.2c0,0,0,0,0,0 c-0.2,0-0.2,0.1-0.2,0.2l-3.9,23.4c-0.4,2.5-2.5,4.2-5,4.1c-2.5,0-4.5-1.8-4.8-4.3l-4.1-32.4c-0.1-0.8-0.7-1-1-1 c-0.3,0-0.9,0-1.2,0.7l-7.9,19.4c-1.2,3-4.1,4.9-7.4,4.9H0v-4.4h24.3c1.4,0,2.7-0.9,3.3-2.2l7.9-19.4c1-2.4,3.3-3.7,5.9-3.4 c2.5,0.3,4.5,2.3,4.8,4.8l4.1,32.4c0,0.1,0.1,0.4,0.5,0.5c0.4,0,0.5-0.3,0.5-0.4l3.9-23.4c0.4-2.3,2.3-3.9,4.6-3.9 c2.3,0,4.2,1.6,4.6,3.8l1.4,7.7c0.4,2,2.1,3.5,4.2,3.5c1.8,0,3.6,0.6,5,1.8c1.4,1.1,2.4,2.7,2.8,4.5L80.4,94l16-91.9 c0.2-1.3,1.4-2.2,2.7-2.1c1.3,0.1,2.3,1.2,2.4,2.5l4.7,141.2L118,81.8c0.7-3.7,4-6.4,7.7-6.4c3.1,0,5.8-2.1,6.5-5.2l4.1-18 c0.4-1.9,2.1-3.2,4.1-3.2c2,0,3.6,1.4,4,3.3l6.9,34c0,0.1,0,0.2,0.2,0.2c0.2,0,0.2-0.1,0.2-0.1l7.6-22.2c0.7-2.1,2.6-3.4,4.8-3.4 c0,0,0,0,0,0c2.2,0,4,1.3,4.8,3.4l3.4,9.7c0.3,0.9,1.2,1.6,2.2,1.6H512v4.4H174.4c-2.9,0-5.4-1.8-6.4-4.5l-3.4-9.7 c-0.1-0.4-0.4-0.4-0.6-0.4c-0.2,0-0.5,0.1-0.6,0.4l-7.6,22.2c-0.7,2-2.6,3.3-4.7,3.1c-2.1-0.1-3.8-1.6-4.2-3.7l-6.6-32.6 l-3.8,16.6c-0.6,2.4-1.9,4.6-3.9,6.2c-2,1.6-4.4,2.4-6.9,2.4c-1.7,0-3.1,1.2-3.4,2.8l-13.6,72.3 C108.4,156.5,107.1,157.6,105.5,157.6z" fill="#ffffff"/></g></g></svg>