<?xml version="1.0" encoding="utf-8"?>
<!-- Generator: Adobe Illustrator 24.0.2, SVG Export Plug-In . SVG Version: 6.00 Build 0)  -->
<svg version="1.1" id="Layer_1" xmlns="http://www.w3.org/2000/svg" xmlns:xlink="http://www.w3.org/1999/xlink" x="0px" y="0px"
	 viewBox="0 0 28.1 24" style="enable-background:new 0 0 28.1 24;" xml:space="preserve">
<style type="text/css">
	.st0{fill:#FFFFFF;}
</style>
<g id="change1_1">
	<path class="st0" d="M18,13c-0.6,0-1-0.4-1-1V6c0-0.6,0.4-1,1-1s1,0.4,1,1v6C19,12.6,18.6,13,18,13z"/>
	<path class="st0" d="M21,10h-6c-0.6,0-1-0.4-1-1s0.4-1,1-1h6c0.6,0,1,0.4,1,1S21.6,10,21,10z"/>
	<path class="st0" d="M27,18c-0.1,0-0.1,0-0.2,0l-4.3-0.9C21.1,17.7,19.5,18,18,18c-5.5,0-10-4-10-9s4.5-9,10-9s10,4,10,9
		c0,1.4-0.4,2.8-1.1,4.1l1,3.7c0.2,0.5-0.2,1.1-0.7,1.2C27.2,18,27.1,18,27,18z M18,2c-4.4,0-8,3.1-8,7s3.6,7,8,7
		c1.4,0,2.7-0.3,3.9-0.9c0.2-0.1,0.4-0.1,0.7-0.1l3,0.6l-0.7-2.5c-0.1-0.3,0-0.6,0.1-0.8c0.7-1,1-2.2,1-3.4C26,5.1,22.4,2,18,2z"/>
	<path class="st0" d="M1,24c-0.6,0-1-0.4-1-1c0-0.1,0-0.2,0-0.3l1-3.7C0.4,17.8,0,16.4,0,15c0-4.7,4-8.6,9.2-9
		c0.5-0.1,1,0.3,1.1,0.9S9.9,8,9.4,8c0,0,0,0-0.1,0C5.2,8.3,2,11.4,2,15c0,1.2,0.4,2.4,1,3.4c0.2,0.2,0.2,0.5,0.1,0.8l-0.7,2.5
		l3-0.6c0.2,0,0.5,0,0.7,0.1C7.3,21.7,8.6,22,10,22c3.7,0,6.9-2.2,7.8-5.3c0.1-0.5,0.7-0.9,1.2-0.7c0.5,0.1,0.9,0.7,0.7,1.2
		c0,0,0,0,0,0c-1.1,4-5.1,6.8-9.7,6.8c-1.5,0-3.1-0.3-4.5-1L1.2,24C1.1,24,1.1,24,1,24z"/>
</g>
</svg>
