<?xml version="1.0" encoding="UTF-8" standalone="no"?><svg xmlns="http://www.w3.org/2000/svg" xmlns:xlink="http://www.w3.org/1999/xlink" fill="#000000" height="62.6" preserveAspectRatio="xMidYMid meet" version="1" viewBox="28.4 18.6 44.7 62.6" width="44.7" zoomAndPan="magnify"><g fill="#ffffff" id="change1_1"><path d="M 63.113281 33.421875 C 62.441406 34.484375 61.765625 35.542969 61.085938 36.597656 C 60.15625 36 59.066406 35.664062 57.929688 35.664062 C 57.335938 35.664062 56.742188 35.757812 56.171875 35.941406 C 53.308594 36.855469 51.621094 39.585938 52.066406 42.582031 C 52.3125 44.25 53.324219 45.667969 54.734375 46.546875 C 53.820312 47.964844 52.910156 49.375 51.992188 50.78125 C 51.640625 51.320312 51.140625 51.382812 50.601562 51.039062 C 48.335938 49.589844 46.066406 48.140625 43.808594 46.675781 C 43.175781 46.265625 43.125 45.820312 43.578125 45.121094 C 46.476562 40.585938 49.386719 36.054688 52.289062 31.527344 C 53.058594 30.328125 53.8125 29.125 54.589844 27.933594 C 55.078125 27.1875 55.488281 27.109375 56.242188 27.59375 C 58.402344 28.96875 60.5625 30.351562 62.71875 31.738281 C 63.53125 32.257812 63.625 32.617188 63.113281 33.421875" fill="inherit"/><path d="M 57.316406 26.027344 C 58.28125 24.546875 59.308594 22.980469 60.328125 21.414062 C 60.757812 20.753906 61.167969 20.085938 61.605469 19.433594 C 62.074219 18.726562 62.4375 18.621094 63.125 19.050781 C 64.652344 20.007812 66.160156 20.988281 67.671875 21.964844 C 68.246094 22.335938 68.351562 22.828125 67.988281 23.398438 C 66.550781 25.664062 65.101562 27.925781 63.675781 30.15625 C 61.5625 28.78125 59.492188 27.4375 57.316406 26.027344" fill="inherit"/><path d="M 43.050781 48.375 C 45.207031 49.753906 47.273438 51.074219 49.433594 52.453125 C 48.71875 53.535156 47.992188 54.660156 47.238281 55.765625 C 46.917969 56.234375 46.441406 56.320312 45.96875 56.023438 C 44.378906 55.027344 42.796875 54.019531 41.230469 52.992188 C 40.738281 52.667969 40.625 52.195312 40.953125 51.671875 C 41.652344 50.5625 42.363281 49.453125 43.050781 48.375" fill="inherit"/><path d="M 58 44.074219 C 56.546875 44.097656 55.417969 43.046875 55.394531 41.648438 C 55.363281 40.210938 56.390625 39.113281 57.820312 39.078125 C 59.285156 39.046875 60.316406 40.03125 60.347656 41.515625 C 60.382812 42.902344 59.316406 44.054688 58 44.074219 Z M 68.027344 77.835938 C 67.085938 77.003906 66.066406 76.261719 64.988281 75.597656 C 64.378906 75.21875 63.738281 74.875 63.09375 74.554688 C 62.894531 74.457031 62.695312 74.355469 62.484375 74.257812 C 63.761719 73.148438 65.089844 72.160156 66.140625 70.945312 C 71.679688 64.5625 73.089844 57.359375 70.074219 49.382812 C 68.679688 45.714844 66.375 42.734375 63.195312 40.417969 C 62.875 40.1875 62.597656 39.808594 62.417969 39.445312 C 61.34375 37.207031 58.808594 36.078125 56.449219 36.820312 C 54.019531 37.59375 52.601562 39.898438 52.980469 42.445312 C 53.335938 44.816406 55.527344 46.570312 58.066406 46.558594 C 58.519531 46.546875 59.128906 46.558594 59.425781 46.824219 C 63.261719 50.257812 65.023438 54.511719 63.9375 59.632812 C 62.398438 66.921875 55.90625 71.242188 48.558594 70.011719 C 46.441406 69.648438 44.527344 68.78125 42.898438 67.199219 C 43.574219 67.199219 44.238281 67.21875 44.914062 67.1875 C 46.289062 67.144531 47.097656 66.390625 47.097656 65.195312 C 47.085938 63.941406 46.253906 63.1875 44.847656 63.1875 C 42.84375 63.175781 40.835938 63.175781 38.832031 63.175781 C 36.082031 63.175781 33.335938 63.164062 30.589844 63.1875 C 29.335938 63.199219 28.371094 64.105469 28.371094 65.214844 C 28.371094 66.335938 29.214844 67.121094 30.511719 67.1875 C 31.1875 67.21875 31.875 67.15625 32.539062 67.230469 C 32.847656 67.265625 33.234375 67.484375 33.390625 67.730469 C 34.855469 70.191406 36.792969 72.183594 39.121094 73.8125 C 39.265625 73.921875 39.40625 74.023438 39.574219 74.15625 C 39.332031 74.265625 39.085938 74.390625 38.851562 74.5 C 37.855469 74.996094 36.902344 75.550781 35.984375 76.171875 C 35.539062 76.480469 35.097656 76.804688 34.675781 77.136719 C 34.445312 77.324219 34.199219 77.546875 33.957031 77.757812 C 33.78125 77.910156 33.535156 78.035156 33.503906 78.277344 C 33.46875 78.578125 33.511719 78.917969 33.503906 79.230469 C 33.503906 79.882812 33.492188 80.539062 33.492188 81.203125 L 68.578125 81.203125 L 68.578125 78.410156 C 68.570312 78.390625 68.570312 78.367188 68.558594 78.355469 C 68.433594 78.132812 68.214844 78.011719 68.027344 77.835938" fill="inherit"/></g></svg>