<?xml version="1.0" encoding="utf-8"?>
<!-- Generator: Adobe Illustrator 24.0.2, SVG Export Plug-In . SVG Version: 6.00 Build 0)  -->
<svg version="1.1" id="Layer_1" xmlns="http://www.w3.org/2000/svg" xmlns:xlink="http://www.w3.org/1999/xlink" x="0px" y="0px"
	 viewBox="0 0 44.7 62.6" style="enable-background:new 0 0 44.7 62.6;" xml:space="preserve">
<style type="text/css">
	.st0{fill:#BA0C2F;}
</style>
<g id="change1_1">
	<path class="st0" d="M34.7,14.8c-0.7,1.1-1.3,2.1-2,3.2c-0.9-0.6-2-0.9-3.2-0.9c-0.6,0-1.2,0.1-1.8,0.3c-2.9,0.9-4.6,3.6-4.1,6.6
		c0.2,1.7,1.3,3.1,2.7,4c-0.9,1.4-1.8,2.8-2.7,4.2c-0.4,0.5-0.9,0.6-1.4,0.3c-2.3-1.4-4.5-2.9-6.8-4.4c-0.6-0.4-0.7-0.9-0.2-1.6
		c2.9-4.5,5.8-9.1,8.7-13.6c0.8-1.2,1.5-2.4,2.3-3.6c0.5-0.7,0.9-0.8,1.7-0.3c2.2,1.4,4.3,2.8,6.5,4.1C35.1,13.7,35.2,14,34.7,14.8"
		/>
	<path class="st0" d="M28.9,7.4c1-1.5,2-3,3-4.6c0.4-0.7,0.8-1.3,1.3-2C33.7,0.1,34,0,34.7,0.5c1.5,1,3,1.9,4.5,2.9
		c0.6,0.4,0.7,0.9,0.3,1.4c-1.4,2.3-2.9,4.5-4.3,6.8C33.2,10.2,31.1,8.8,28.9,7.4"/>
	<path class="st0" d="M14.7,29.8c2.2,1.4,4.2,2.7,6.4,4.1c-0.7,1.1-1.4,2.2-2.2,3.3c-0.3,0.5-0.8,0.6-1.3,0.3c-1.6-1-3.2-2-4.7-3
		c-0.5-0.3-0.6-0.8-0.3-1.3C13.3,32,14,30.9,14.7,29.8"/>
	<path class="st0" d="M29.6,25.5c-1.5,0-2.6-1-2.6-2.4c0-1.4,1-2.5,2.4-2.6c1.5,0,2.5,1,2.5,2.4C32,24.3,30.9,25.5,29.6,25.5z
		 M39.6,59.2c-0.9-0.8-2-1.6-3-2.2c-0.6-0.4-1.3-0.7-1.9-1c-0.2-0.1-0.4-0.2-0.6-0.3c1.3-1.1,2.6-2.1,3.7-3.3
		c5.5-6.4,6.9-13.6,3.9-21.6c-1.4-3.7-3.7-6.6-6.9-9c-0.3-0.2-0.6-0.6-0.8-1c-1.1-2.2-3.6-3.4-6-2.6c-2.4,0.8-3.8,3.1-3.5,5.6
		c0.4,2.4,2.5,4.1,5.1,4.1c0.5,0,1.1,0,1.4,0.3c3.8,3.4,5.6,7.7,4.5,12.8c-1.5,7.3-8,11.6-15.4,10.4c-2.1-0.4-4-1.2-5.7-2.8
		c0.7,0,1.3,0,2,0c1.4,0,2.2-0.8,2.2-2c0-1.3-0.8-2-2.3-2c-2,0-4,0-6,0c-2.8,0-5.5,0-8.2,0c-1.3,0-2.2,0.9-2.2,2
		c0,1.1,0.8,1.9,2.1,2c0.7,0,1.4,0,2,0c0.3,0,0.7,0.3,0.9,0.5c1.5,2.5,3.4,4.5,5.7,6.1c0.1,0.1,0.3,0.2,0.5,0.3
		c-0.2,0.1-0.5,0.2-0.7,0.3c-1,0.5-1.9,1.1-2.9,1.7c-0.4,0.3-0.9,0.6-1.3,1c-0.2,0.2-0.5,0.4-0.7,0.6c-0.2,0.2-0.4,0.3-0.5,0.5
		c0,0.3,0,0.6,0,1c0,0.7,0,1.3,0,2h35.1v-2.8c0,0,0,0,0-0.1C40,59.5,39.8,59.4,39.6,59.2"/>
</g>
</svg>
