<?xml version="1.0" encoding="utf-8"?>
<!-- Generator: Adobe Illustrator 24.0.2, SVG Export Plug-In . SVG Version: 6.00 Build 0)  -->
<svg version="1.1" id="Layer_1" xmlns="http://www.w3.org/2000/svg" xmlns:xlink="http://www.w3.org/1999/xlink" x="0px" y="0px"
	 viewBox="0 0 500 509.6" style="enable-background:new 0 0 500 509.6;" xml:space="preserve">
<style type="text/css">
	.st0{fill:#FFFFFF;}
</style>
<g id="change1_1">
	<circle class="st0" cx="19.2" cy="19.2" r="19.2"/>
</g>
<g id="change1_2">
	<circle class="st0" cx="19.2" cy="86.5" r="19.2"/>
</g>
<g id="change1_3">
	
		<ellipse transform="matrix(0.1602 -0.9871 0.9871 0.1602 -4.3561 821.7199)" class="st0" cx="480.7" cy="413.4" rx="19.2" ry="19.2"/>
</g>
<g id="change1_4">
	<circle class="st0" cx="480.7" cy="480.7" r="19.2"/>
</g>
<g id="change1_5">
	<path class="st0" d="M134.6,471.1h230.8v38.5H134.6V471.1z"/>
</g>
<g id="change1_6">
	<path class="st0" d="M105.7,413.4h288.5v38.5H105.7V413.4z"/>
</g>
<g id="change1_7">
	<path class="st0" d="M290.5,361.6c-3.3-4.2-2.5-10.2,1.7-13.5c4.2-3.3,10.2-2.5,13.5,1.7l34.5,44.4h54.1l-67.3-86.5H173l-67.3,86.5
		h210L290.5,361.6L290.5,361.6z"/>
</g>
<g id="change1_8">
	<path class="st0" d="M250,9.6C117.2,9.6,9.6,117.2,9.6,249.9c0,69.6,29.6,132.3,76.9,176.2v-28.7c0-6.4,2.1-12.6,6.1-17.7
		l50.6-65.1c-11.5-18.9-18.2-41-18.2-64.8c0-69,56-125,125-125s125,56,125,125c0,23.7-6.7,45.9-18.2,64.8l50.6,65.1
		c3.9,5.1,6.1,11.3,6.1,17.7v28.7c47.3-43.9,76.9-106.6,76.9-176.2C490.3,117.2,382.7,9.6,250,9.6L250,9.6z M96.1,269.2H38.4v-38.5
		h57.7V269.2z M401,112.5c-1.9,1.9-4.4,2.9-6.9,2.9s-4.9-0.9-6.7-2.8C351.8,77.7,301.7,57.6,250,57.6c-5.3,0-9.6-4.3-9.6-9.6
		s4.3-9.6,9.6-9.6c56.7,0,111.8,22,151,60.4C404.7,102.6,404.8,108.6,401,112.5L401,112.5z"/>
</g>
</svg>
