<?xml version="1.0" encoding="UTF-8" standalone="no"?><svg xmlns="http://www.w3.org/2000/svg" xmlns:xlink="http://www.w3.org/1999/xlink" fill="#ba0c2f" height="509.6" preserveAspectRatio="xMidYMid meet" version="1" viewBox="38.5 33.7 500.0 509.6" width="500" zoomAndPan="magnify"><g id="change1_1"><circle cx="57.69" cy="52.88" r="19.23"/></g><g id="change1_2"><circle cx="57.69" cy="120.19" r="19.23"/></g><g id="change1_3"><circle cx="519.23" cy="447.12" r="19.23"/></g><g id="change1_4"><circle cx="519.23" cy="514.42" r="19.23"/></g><g id="change1_5"><path d="M173.08 504.81H403.85V543.27H173.08z"/></g><g id="change1_6"><path d="M144.23 447.12H432.68999999999994V485.58H144.23z"/></g><g id="change1_7"><path d="m328.95,395.33c-3.27-4.2-2.51-10.24,1.68-13.49,4.21-3.27,10.24-2.5,13.49,1.68l34.51,44.37h54.06l-67.31-86.54h-153.85l-67.31,86.54h210.04l-25.32-32.56Z"/></g><g id="change1_8"><path d="m288.46,43.27c-132.76,0-240.38,107.62-240.38,240.38,0,69.62,29.63,132.29,76.92,176.19v-28.66c0-6.41,2.14-12.65,6.08-17.71l50.61-65.08c-11.49-18.9-18.23-41.01-18.23-64.75,0-69.04,55.96-125,125-125s125,55.96,125,125c0,23.74-6.74,45.85-18.23,64.75l50.61,65.08c3.94,5.06,6.08,11.29,6.08,17.71v28.66c47.3-43.9,76.92-106.57,76.92-176.19,0-132.76-107.62-240.38-240.38-240.38Zm-153.85,259.62h-57.69v-38.46h57.69v38.46Zm304.94-156.73c-1.88,1.92-4.38,2.88-6.86,2.88s-4.85-.91-6.73-2.75c-35.64-34.91-85.75-54.94-137.5-54.94-5.31,0-9.62-4.3-9.62-9.62s4.3-9.62,9.62-9.62c56.73,0,111.76,22.03,150.96,60.44,3.79,3.71,3.85,9.8.13,13.6Z"/></g></svg>